# Blender v3.5.0 OBJ File: ''
# www.blender.org
mtllib cone.mtl
o cone_円錐
v -0.093070 8.282522 0.961449
v 0.093069 8.282522 0.961449
v -0.000000 8.282522 0.977417
v -0.745658 8.282522 0.614037
v -0.614038 8.282522 0.745657
v -0.691139 8.282522 0.691138
v -0.961450 8.282522 -0.093069
v -0.961450 8.282522 0.093069
v -0.977418 8.282522 0.000000
v -0.614038 8.282522 -0.745657
v -0.745658 8.282522 -0.614037
v -0.691139 8.282522 -0.691138
v 0.093069 8.282522 -0.961449
v -0.093070 8.282522 -0.961449
v -0.000000 8.282522 -0.977417
v 0.745657 8.282522 -0.614037
v 0.614037 8.282522 -0.745657
v 0.691138 8.282522 -0.691138
v 0.961449 8.282522 0.093069
v 0.961449 8.282522 -0.093069
v 0.977417 8.282522 0.000000
v 0.614037 8.282522 0.745657
v 0.745657 8.282522 0.614037
v 0.691138 8.282522 0.691138
v 0.093096 9.755890 0.224755
v 0.224754 9.755890 0.093096
v 0.224754 9.755890 -0.093096
v 0.093096 9.755890 -0.224755
v -0.093097 9.755890 -0.224755
v -0.224755 9.755890 -0.093096
v -0.224755 9.755890 0.093096
v -0.093097 9.755890 0.224755
v 0.167961 9.762279 0.167961
v -0.000000 10.019604 -0.000000
v 0.237532 9.762279 0.000000
v 0.167961 9.762279 -0.167961
v -0.000000 9.762279 -0.237533
v -0.167961 9.762279 -0.167961
v -0.237533 9.762279 -0.000000
v -0.167961 9.762279 0.167961
v -0.000000 9.762279 0.237533
v -0.093043 -9.467835 0.961460
v 0.000000 -9.567836 0.891761
v 0.093043 -9.467835 0.961460
v -0.054447 -9.538547 0.945745
v 0.000000 -9.525573 0.964131
v 0.054447 -9.538547 0.945745
v 0.000000 -9.467835 0.977424
v -0.614063 -9.467835 0.745647
v -0.745646 -9.467835 0.614064
v -0.630570 -9.567836 0.630570
v -0.691143 -9.467835 0.691143
v -0.681744 -9.525573 0.681744
v -0.707242 -9.538547 0.630243
v -0.630242 -9.538547 0.707243
v -0.961460 -9.467835 0.093043
v -0.961460 -9.467835 -0.093043
v -0.891761 -9.567836 0.000000
v -0.977424 -9.467835 0.000000
v -0.964131 -9.525573 -0.000000
v -0.945745 -9.538547 -0.054447
v -0.945745 -9.538547 0.054447
v -0.745646 -9.467835 -0.614064
v -0.614063 -9.467835 -0.745647
v -0.630570 -9.567836 -0.630570
v -0.691143 -9.467835 -0.691143
v -0.681744 -9.525573 -0.681744
v -0.630242 -9.538547 -0.707243
v -0.707242 -9.538547 -0.630242
v -0.093043 -9.467835 -0.961460
v 0.093043 -9.467835 -0.961460
v 0.000000 -9.567836 -0.891761
v 0.000000 -9.467835 -0.977424
v 0.000000 -9.525573 -0.964131
v 0.054447 -9.538547 -0.945745
v -0.054447 -9.538547 -0.945745
v 0.614064 -9.467835 -0.745647
v 0.745647 -9.467835 -0.614064
v 0.630570 -9.567836 -0.630570
v 0.691143 -9.467835 -0.691143
v 0.681744 -9.525573 -0.681744
v 0.707243 -9.538547 -0.630243
v 0.630243 -9.538547 -0.707243
v 0.961460 -9.467835 -0.093043
v 0.961460 -9.467835 0.093043
v 0.891761 -9.567836 0.000000
v 0.977424 -9.467835 0.000000
v 0.964131 -9.525573 0.000000
v 0.945745 -9.538547 0.054447
v 0.945745 -9.538547 -0.054447
v 0.745647 -9.467835 0.614064
v 0.614064 -9.467835 0.745647
v 0.630570 -9.567836 0.630570
v 0.691143 -9.467835 0.691143
v 0.681744 -9.525573 0.681744
v 0.630243 -9.538547 0.707243
v 0.707243 -9.538547 0.630242
vt 0.050702 0.109161
vt 0.064444 0.036159
vt 0.078187 0.109161
vt 0.207077 0.109161
vt 0.179577 0.973737
vt 0.179592 0.109161
vt 0.409512 0.109031
vt 0.390077 0.972882
vt 0.390077 0.108306
vt 0.445379 0.109161
vt 0.417894 0.973737
vt 0.417894 0.109161
vt 0.344333 0.891693
vt 0.324884 0.026392
vt 0.344321 0.027117
vt 0.289032 0.890839
vt 0.316505 0.026263
vt 0.316516 0.890839
vt 0.302775 0.963841
vt 0.042320 0.109031
vt 0.022884 0.972882
vt 0.022885 0.108306
vt 0.050701 0.973737
vt 0.311160 0.963970
vt 0.324898 0.890968
vt 0.431636 0.036159
vt 0.215459 0.109032
vt 0.201720 0.036030
vt 0.234893 0.108307
vt 0.193335 0.036159
vt 0.559742 0.026318
vt 0.583266 0.083109
vt 0.526475 0.106633
vt 0.056060 0.036030
vt 0.151775 0.108306
vt 0.184951 0.036029
vt 0.171210 0.109031
vt 0.064444 0.022872
vt 0.068875 0.035805
vt 0.060014 0.035805
vt 0.302775 0.977128
vt 0.298344 0.964195
vt 0.307206 0.964195
vt 0.431636 0.022872
vt 0.436067 0.035805
vt 0.423252 0.036030
vt 0.427206 0.035805
vt 0.193335 0.022872
vt 0.197766 0.035805
vt 0.188905 0.035805
vt 0.084537 0.977052
vt 0.082676 0.973699
vt 0.086568 0.973607
vt 0.502951 0.083109
vt 0.499692 0.084459
vt 0.499505 0.081664
vt 0.079633 0.977128
vt 0.078188 0.973737
vt 0.175090 0.973699
vt 0.173229 0.977052
vt 0.171197 0.973607
vt 0.178132 0.977128
vt 0.502951 0.049842
vt 0.499692 0.048492
vt 0.501536 0.046383
vt 0.211552 0.973699
vt 0.208510 0.977128
vt 0.207065 0.973737
vt 0.213413 0.977052
vt 0.215445 0.973608
vt 0.526475 0.026318
vt 0.525125 0.023060
vt 0.527920 0.022872
vt 0.413406 0.973699
vt 0.411545 0.977052
vt 0.409514 0.973607
vt 0.416449 0.977128
vt 0.561092 0.023060
vt 0.563201 0.024903
vt 0.449869 0.973699
vt 0.446826 0.977128
vt 0.445381 0.973737
vt 0.451730 0.977052
vt 0.453761 0.973607
vt 0.583266 0.049842
vt 0.586524 0.048492
vt 0.586712 0.051287
vt 0.320992 0.026301
vt 0.322853 0.022948
vt 0.317950 0.022872
vt 0.586524 0.084459
vt 0.584681 0.086568
vt 0.284529 0.026301
vt 0.287572 0.022872
vt 0.289017 0.026263
vt 0.282668 0.022948
vt 0.280637 0.026393
vt 0.559742 0.106633
vt 0.561092 0.109892
vt 0.558297 0.110079
vt 0.046213 0.973699
vt 0.044352 0.977052
vt 0.042321 0.973607
vt 0.049256 0.977128
vt 0.525125 0.109892
vt 0.523016 0.108048
vt 0.082676 0.109123
vt 0.086569 0.109031
vt 0.453761 0.109031
vt 0.440021 0.036030
vt 0.280649 0.890969
vt 0.294391 0.963971
vt 0.106017 0.976251
vt 0.499505 0.051287
vt 0.523016 0.024903
vt 0.234893 0.976251
vt 0.584681 0.046383
vt 0.344333 0.023749
vt 0.563201 0.108048
vt 0.022872 0.976251
vt 0.527920 0.110079
vt 0.501536 0.086568
vt 0.321005 0.890877
vt 0.449868 0.109123
vt 0.413405 0.109123
vt 0.211565 0.109123
vt 0.175103 0.109123
vt 0.046213 0.109123
vt 0.284543 0.890877
vt 0.151761 0.972882
vt 0.053748 0.035571
vt 0.313471 0.964429
vt 0.420940 0.035571
vt 0.182639 0.035571
vt 0.082428 0.976489
vt 0.175337 0.976489
vt 0.211304 0.976489
vt 0.413654 0.976489
vt 0.558297 0.022872
vt 0.449621 0.976489
vt 0.320744 0.023511
vt 0.586712 0.081664
vt 0.284777 0.023511
vt 0.046461 0.976489
vt 0.072829 0.036030
vt 0.106005 0.972882
vt 0.234881 0.972883
vn 0.3474 0.4194 0.8387
vn -0.9239 -0.0000 0.3827
vn -0.9239 -0.0000 -0.3827
vn -0.3827 -0.0000 -0.9239
vn 0.3827 0.0000 -0.9239
vn 0.9239 0.0000 -0.3827
vn 0.8387 0.4194 -0.3474
vn 0.9239 0.0000 0.3827
vn 0.3827 0.0000 0.9239
vn 0.3474 0.4194 -0.8387
vn -0.3474 0.4194 -0.8387
vn -0.8387 0.4194 -0.3474
vn -0.8387 0.4194 0.3474
vn 0.0000 -1.0000 0.0000
vn 0.8387 0.4194 0.3474
vn -0.3474 0.4194 0.8387
vn 0.1458 0.6710 0.7269
vn 0.6171 0.6710 0.4109
vn 0.7269 0.6710 -0.1458
vn 0.4109 0.6710 -0.6171
vn -0.1458 0.6710 -0.7269
vn -0.6171 0.6710 -0.4109
vn -0.7269 0.6710 0.1458
vn -0.4109 0.6710 0.6171
vn -0.1615 -0.2973 0.9410
vn 0.0354 -0.8630 0.5040
vn 0.1615 -0.2973 0.9410
vn -0.5512 -0.2973 0.7796
vn -0.7796 -0.2973 0.5513
vn -0.3313 -0.8630 0.3814
vn -0.9410 -0.2973 0.1615
vn -0.9410 -0.2973 -0.1615
vn -0.5040 -0.8630 0.0354
vn -0.7796 -0.2973 -0.5513
vn -0.5513 -0.2973 -0.7796
vn -0.3814 -0.8630 -0.3313
vn -0.1615 -0.2973 -0.9410
vn 0.1615 -0.2973 -0.9410
vn -0.0354 -0.8630 -0.5040
vn 0.5512 -0.2973 -0.7796
vn 0.7796 -0.2973 -0.5513
vn 0.3313 -0.8630 -0.3814
vn 0.9410 -0.2973 -0.1615
vn 0.9410 -0.2973 0.1615
vn 0.5040 -0.8630 -0.0354
vn 0.7796 -0.2973 0.5513
vn 0.5513 -0.2973 0.7796
vn 0.3814 -0.8630 0.3313
vn 0.1517 0.4420 0.8841
vn -0.1517 0.4420 0.8841
vn -0.7324 0.4420 0.5179
vn -0.5179 0.4420 0.7324
vn -0.8841 0.4420 -0.1517
vn -0.8841 0.4420 0.1517
vn -0.5179 0.4420 -0.7324
vn -0.7324 0.4420 -0.5179
vn 0.1517 0.4420 -0.8841
vn -0.1517 0.4420 -0.8841
vn 0.7324 0.4420 -0.5179
vn 0.5179 0.4420 -0.7324
vn 0.8841 0.4420 0.1517
vn 0.8841 0.4420 -0.1517
vn 0.5179 0.4420 0.7324
vn 0.7324 0.4420 0.5179
vn -0.3535 -0.3827 0.8536
vn -0.1464 -0.9239 0.3535
vn -0.8536 -0.3827 0.3536
vn -0.3536 -0.9239 0.1464
vn -0.8536 -0.3827 -0.3536
vn -0.3536 -0.9239 -0.1464
vn -0.3536 -0.3827 -0.8536
vn -0.1464 -0.9239 -0.3536
vn 0.3535 -0.3827 -0.8536
vn 0.1464 -0.9239 -0.3535
vn 0.8536 -0.3827 -0.3536
vn 0.3536 -0.9239 -0.1464
vn 0.8536 -0.3827 0.3536
vn 0.3536 -0.9239 0.1464
vn 0.3536 -0.3827 0.8536
vn 0.1464 -0.9239 0.3536
vn 0.8165 0.0000 -0.5774
vn 0.5774 0.0000 -0.8165
vn -0.1691 0.0000 -0.9856
vn 0.1691 0.0000 -0.9856
vn -0.8165 0.0000 -0.5773
vn -0.5773 0.0000 -0.8165
vn -0.9856 0.0000 0.1691
vn -0.9856 0.0000 -0.1691
vn -0.5774 0.0000 0.8165
vn -0.8165 0.0000 0.5773
vn -0.1691 0.0000 0.9856
vn 0.1691 0.0000 0.9856
vn 0.8165 0.0000 0.5773
vn 0.5773 0.0000 0.8165
vn 0.9856 0.0000 -0.1691
vn 0.9856 0.0000 0.1691
vn -0.3827 -0.0000 0.9239
vn 0.4109 0.6710 0.6171
vn 0.7269 0.6710 0.1458
vn 0.6171 0.6710 -0.4109
vn 0.1458 0.6710 -0.7269
vn -0.4109 0.6710 -0.6171
vn -0.7269 0.6710 -0.1458
vn -0.6171 0.6710 0.4109
vn -0.1458 0.6710 0.7269
vn -0.2657 -0.2163 0.9395
vn -0.0354 -0.8630 0.5040
vn 0.2657 -0.2163 0.9395
vn -0.4764 -0.2163 0.8522
vn -0.8522 -0.2163 0.4764
vn -0.3814 -0.8630 0.3313
vn -0.9395 -0.2163 0.2657
vn -0.9395 -0.2163 -0.2657
vn -0.5040 -0.8630 -0.0354
vn -0.8522 -0.2163 -0.4764
vn -0.4764 -0.2163 -0.8522
vn -0.3313 -0.8630 -0.3814
vn -0.2657 -0.2163 -0.9395
vn 0.2657 -0.2163 -0.9395
vn 0.0354 -0.8630 -0.5040
vn 0.4764 -0.2163 -0.8522
vn 0.8522 -0.2163 -0.4764
vn 0.3814 -0.8630 -0.3313
vn 0.9395 -0.2163 -0.2657
vn 0.9395 -0.2163 0.2657
vn 0.5040 -0.8630 0.0354
vn 0.8522 -0.2163 0.4764
vn 0.4764 -0.2163 0.8522
vn 0.3313 -0.8630 0.3814
vn -0.3536 -0.3827 0.8535
vn -0.1464 -0.9239 0.3536
vn -0.3536 -0.3827 -0.8535
vn 0.3536 -0.3827 -0.8536
vn 0.1464 -0.9239 -0.3536
vn 0.8165 0.0000 -0.5773
vn -0.8165 0.0000 -0.5774
vn -0.5774 0.0000 -0.8165
vn -0.8165 0.0000 0.5774
vn 0.8165 0.0000 0.5774
vn 0.5774 0.0000 0.8165
usemtl マテリアル
s off
f 22/1/1 25/2/1 2/3/1
f 8/4/2 50/5/2 4/6/2
f 11/7/3 57/8/3 7/9/3
f 14/10/4 64/11/4 10/12/4
f 13/13/5 77/14/5 71/15/5
f 20/16/6 78/17/6 16/18/6
f 16/18/7 27/19/7 20/16/7
f 23/20/8 85/21/8 19/22/8
f 2/3/9 92/23/9 22/1/9
f 13/13/10 28/24/10 17/25/10
f 10/12/11 29/26/11 14/10/11
f 7/27/12 30/28/12 11/29/12
f 4/6/13 31/30/13 8/4/13
f 65/31/14 79/32/14 93/33/14
f 19/22/15 26/34/15 23/20/15
f 1/35/16 32/36/16 5/37/16
f 25/2/17 34/38/17 41/39/17
f 26/34/18 34/38/18 33/40/18
f 27/19/19 34/41/19 35/42/19
f 28/24/20 34/41/20 36/43/20
f 29/26/21 34/44/21 37/45/21
f 30/46/22 34/44/22 38/47/22
f 31/30/23 34/48/23 39/49/23
f 32/36/24 34/48/24 40/50/24
f 45/51/25 48/52/25 42/53/25
f 43/54/26 46/55/26 45/56/26
f 48/52/27 47/57/27 44/58/27
f 52/59/28 55/60/28 49/61/28
f 54/62/29 52/59/29 50/5/29
f 51/63/30 53/64/30 54/65/30
f 59/66/31 62/67/31 56/68/31
f 61/69/32 59/66/32 57/70/32
f 58/71/33 60/72/33 61/73/33
f 66/74/34 69/75/34 63/76/34
f 68/77/35 66/74/35 64/11/35
f 65/31/36 67/78/36 68/79/36
f 73/80/37 76/81/37 70/82/37
f 75/83/38 73/80/38 71/84/38
f 72/85/39 74/86/39 75/87/39
f 80/88/40 83/89/40 77/14/40
f 82/90/41 80/88/41 78/17/41
f 79/32/42 81/91/42 82/92/42
f 87/93/43 90/94/43 84/95/43
f 89/96/44 87/93/44 85/97/44
f 86/98/45 88/99/45 89/100/45
f 94/101/46 97/102/46 91/103/46
f 96/104/47 94/101/47 92/23/47
f 93/33/48 95/105/48 96/106/48
f 2/3/49 41/39/49 3/107/49
f 41/39/50 1/108/50 3/107/50
f 4/6/51 40/50/51 31/30/51
f 40/50/52 5/37/52 32/36/52
f 7/27/53 39/49/53 30/28/53
f 39/49/54 8/4/54 31/30/54
f 10/12/55 38/47/55 29/26/55
f 38/47/56 11/7/56 30/46/56
f 13/109/57 37/45/57 28/110/57
f 37/45/58 14/10/58 29/26/58
f 16/18/59 36/43/59 27/19/59
f 36/43/60 17/25/60 28/24/60
f 19/111/61 35/42/61 26/112/61
f 35/42/62 20/16/62 27/19/62
f 22/1/63 33/40/63 25/2/63
f 33/40/64 23/20/64 26/34/64
f 42/53/65 55/113/65 45/51/65
f 55/114/66 43/54/66 45/56/66
f 56/68/67 54/62/67 50/5/67
f 62/115/68 51/63/68 54/65/68
f 57/70/69 69/116/69 61/69/69
f 61/73/70 65/31/70 58/71/70
f 70/82/71 68/77/71 64/11/71
f 76/117/72 65/31/72 68/79/72
f 77/14/73 75/118/73 71/15/73
f 75/87/74 79/32/74 72/85/74
f 84/95/75 82/90/75 78/17/75
f 90/119/76 79/32/76 82/92/76
f 85/21/77 97/102/77 89/120/77
f 97/121/78 86/98/78 89/100/78
f 44/58/79 96/104/79 92/23/79
f 47/122/80 93/33/80 96/106/80
f 78/17/81 18/123/81 16/18/81
f 80/88/82 17/25/82 18/123/82
f 14/10/83 73/80/83 70/82/83
f 15/124/84 71/84/84 73/80/84
f 11/7/85 66/74/85 63/76/85
f 12/125/86 64/11/86 66/74/86
f 8/4/87 59/66/87 56/68/87
f 9/126/88 57/70/88 59/66/88
f 5/37/89 52/59/89 49/61/89
f 6/127/90 50/5/90 52/59/90
f 42/53/91 3/107/91 1/108/91
f 48/52/92 2/3/92 3/107/92
f 23/20/93 94/101/93 91/103/93
f 24/128/94 92/23/94 94/101/94
f 20/16/95 87/93/95 84/95/95
f 21/129/96 85/97/96 87/93/96
f 5/37/97 42/130/97 1/35/97
f 8/4/2 56/68/2 50/5/2
f 11/7/3 63/76/3 57/8/3
f 14/10/4 70/82/4 64/11/4
f 13/13/5 17/25/5 77/14/5
f 20/16/6 84/95/6 78/17/6
f 23/20/8 91/103/8 85/21/8
f 2/3/9 44/58/9 92/23/9
f 93/33/14 43/54/14 51/63/14
f 51/63/14 58/71/14 65/31/14
f 65/31/14 72/85/14 79/32/14
f 79/32/14 86/98/14 93/33/14
f 93/33/14 51/63/14 65/31/14
f 25/2/98 33/40/98 34/38/98
f 26/34/99 35/131/99 34/38/99
f 27/19/100 36/43/100 34/41/100
f 28/24/101 37/132/101 34/41/101
f 29/26/102 38/47/102 34/44/102
f 30/46/103 39/133/103 34/44/103
f 31/30/104 40/50/104 34/48/104
f 32/36/105 41/134/105 34/48/105
f 45/51/106 46/135/106 48/52/106
f 43/54/107 47/122/107 46/55/107
f 48/52/108 46/135/108 47/57/108
f 52/59/109 53/136/109 55/60/109
f 54/62/110 53/136/110 52/59/110
f 51/63/111 55/114/111 53/64/111
f 59/66/112 60/137/112 62/67/112
f 61/69/113 60/137/113 59/66/113
f 58/71/114 62/115/114 60/72/114
f 66/74/115 67/138/115 69/75/115
f 68/77/116 67/138/116 66/74/116
f 65/31/117 69/139/117 67/78/117
f 73/80/118 74/140/118 76/81/118
f 75/83/119 74/140/119 73/80/119
f 72/85/120 76/117/120 74/86/120
f 80/88/121 81/141/121 83/89/121
f 82/90/122 81/141/122 80/88/122
f 79/32/123 83/142/123 81/91/123
f 87/93/124 88/143/124 90/94/124
f 89/96/125 88/143/125 87/93/125
f 86/98/126 90/119/126 88/99/126
f 94/101/127 95/144/127 97/102/127
f 96/104/128 95/144/128 94/101/128
f 93/33/129 97/121/129 95/105/129
f 2/3/49 25/2/49 41/39/49
f 41/39/50 32/145/50 1/108/50
f 4/6/51 6/127/51 40/50/51
f 40/50/52 6/127/52 5/37/52
f 7/27/53 9/126/53 39/49/53
f 39/49/54 9/126/54 8/4/54
f 10/12/55 12/125/55 38/47/55
f 38/47/56 12/125/56 11/7/56
f 13/109/57 15/124/57 37/45/57
f 37/45/58 15/124/58 14/10/58
f 16/18/59 18/123/59 36/43/59
f 36/43/60 18/123/60 17/25/60
f 19/111/61 21/129/61 35/42/61
f 35/42/62 21/129/62 20/16/62
f 22/1/63 24/128/63 33/40/63
f 33/40/64 24/128/64 23/20/64
f 42/53/130 49/146/130 55/113/130
f 55/114/131 51/63/131 43/54/131
f 56/68/67 62/67/67 54/62/67
f 62/115/68 58/71/68 51/63/68
f 57/70/69 63/147/69 69/116/69
f 61/73/70 69/139/70 65/31/70
f 70/82/132 76/81/132 68/77/132
f 76/117/72 72/85/72 65/31/72
f 77/14/133 83/89/133 75/118/133
f 75/87/134 83/142/134 79/32/134
f 84/95/75 90/94/75 82/90/75
f 90/119/76 86/98/76 79/32/76
f 85/21/77 91/103/77 97/102/77
f 97/121/78 93/33/78 86/98/78
f 44/58/79 47/57/79 96/104/79
f 47/122/80 43/54/80 93/33/80
f 78/17/135 80/88/135 18/123/135
f 80/88/82 77/14/82 17/25/82
f 14/10/83 15/124/83 73/80/83
f 15/124/84 13/109/84 71/84/84
f 11/7/136 12/125/136 66/74/136
f 12/125/137 10/12/137 64/11/137
f 8/4/87 9/126/87 59/66/87
f 9/126/88 7/27/88 57/70/88
f 5/37/89 6/127/89 52/59/89
f 6/127/138 4/6/138 50/5/138
f 42/53/91 48/52/91 3/107/91
f 48/52/92 44/58/92 2/3/92
f 23/20/139 24/128/139 94/101/139
f 24/128/140 22/1/140 92/23/140
f 20/16/95 21/129/95 87/93/95
f 21/129/96 19/111/96 85/97/96
f 5/37/97 49/61/97 42/130/97
