# Blender v3.5.0 OBJ File: ''
# www.blender.org
mtllib stage_stone.mtl
o 立方体.011
v 1.172203 0.179550 11.484981
v 1.172203 -0.002976 12.191358
v 1.172203 -0.002976 11.484981
v -0.626960 -0.002976 12.191358
v -1.226681 0.322227 12.266141
v -1.226681 -0.002976 12.191358
v -1.226681 -0.002976 10.072227
v -1.033964 0.431571 9.365849
v -1.226681 -0.002976 9.365849
v 0.559181 0.387745 9.365849
v 1.172203 -0.002976 9.365849
v 0.559181 -0.002976 9.365849
v -1.226681 -0.421742 10.072227
v -0.626960 -0.421742 9.365849
v -0.626960 -0.421742 10.072227
v 0.559181 0.415790 10.072227
v 0.845379 0.415790 9.365849
v -0.027239 0.598754 10.072227
v -0.626960 0.567265 9.365849
v -0.626960 0.567265 10.072227
v -0.027239 -0.421742 10.072227
v 0.252671 -0.421742 9.365849
v 0.252671 -0.421742 10.072227
v -0.626960 -0.002976 9.365849
v -0.027239 0.415790 9.365849
v -0.027239 -0.002976 9.365849
v 0.252671 0.415790 12.191358
v -0.027239 -0.002976 12.191358
v 0.252671 -0.002976 12.191358
v -0.027239 -0.421742 11.484981
v 0.252671 -0.421742 10.778604
v 0.252671 -0.421742 11.484981
v -0.027239 0.415790 11.484981
v -0.626960 0.415790 10.778604
v -0.626960 0.441371 11.484981
v 0.559181 0.291716 10.778604
v 0.559181 0.179550 11.484981
v -1.226681 -0.421742 11.484981
v -0.626960 -0.421742 10.778604
v -0.626960 -0.421742 11.484981
v -1.226681 -0.002976 11.484981
v -1.226681 0.415790 10.778604
v -1.226681 -0.002976 10.778604
v 1.172203 -0.002976 10.072227
v 1.172203 0.291716 10.778604
v 1.172203 -0.002976 10.778604
v 0.252671 0.415790 11.484981
v 0.252671 0.598754 10.778604
v 0.559181 -0.421742 11.484981
v 1.172203 -0.421742 10.778604
v 1.172203 -0.421742 11.484981
v 1.109240 0.178936 12.191358
v 0.559181 -0.002976 12.191358
v 0.559181 -0.421742 10.072227
v 1.172203 -0.421742 9.365849
v 1.172203 -0.421742 10.072227
v 0.252671 0.415790 9.365849
v 0.252671 0.598754 10.072227
v 0.252671 -0.002976 9.365849
v -0.027239 -0.421742 10.778604
v -1.226681 0.513683 11.484981
v -1.226681 0.567265 10.072227
v -0.027239 -0.421742 9.365849
v -0.027239 0.415790 12.191358
v -0.626960 -0.421742 12.191358
v -0.027239 -0.421742 12.191358
v -1.226681 -0.421742 9.365849
v 0.559181 -0.421742 9.365849
v 0.559181 -0.421742 12.191358
v 1.172203 -0.421742 12.191358
v -1.226681 -0.421742 10.778604
v 0.252671 -0.421742 12.191358
v -1.226681 -0.421742 12.191358
v -0.027239 0.598754 10.778604
v 0.559181 -0.421742 10.778604
v 0.559181 0.303624 12.191358
v -0.626960 0.513683 12.191358
v 1.172203 0.415790 10.072227
v 1.172203 0.179550 4.278474
v 1.172203 -0.002976 4.984851
v 1.172203 -0.002976 4.278474
v -0.626959 -0.002976 4.984851
v -1.226680 0.322227 5.059636
v -1.226680 -0.002976 4.984851
v -1.226680 -0.002976 2.865720
v -1.033963 0.431571 2.159345
v -1.226680 -0.002976 2.159345
v 0.559182 0.387745 2.159345
v 1.172203 -0.002976 2.159345
v 0.559182 -0.002976 2.159345
v -1.226680 -0.421742 2.865720
v -0.626959 -0.421742 2.159345
v -0.626959 -0.421742 2.865720
v 0.559182 0.415790 2.865720
v 0.845379 0.415790 2.159345
v -0.027238 0.598754 2.865720
v -0.626959 0.567265 2.159345
v -0.626959 0.567265 2.865720
v -0.027238 -0.421742 2.865720
v 0.252671 -0.421742 2.159345
v 0.252671 -0.421742 2.865720
v -0.626959 -0.002976 2.159345
v -0.027238 0.415790 2.159345
v -0.027238 -0.002976 2.159345
v 0.252671 0.415790 4.984851
v -0.027238 -0.002976 4.984851
v 0.252671 -0.002976 4.984851
v -0.027238 -0.421742 4.278474
v 0.252671 -0.421742 3.572097
v 0.252671 -0.421742 4.278474
v -0.027238 0.415790 4.278474
v -0.626959 0.415790 3.572097
v -0.626959 0.441371 4.278474
v 0.559182 0.291716 3.572097
v 0.559182 0.179550 4.278474
v -1.226680 -0.421742 4.278474
v -0.626959 -0.421742 3.572097
v -0.626959 -0.421742 4.278474
v -1.226680 -0.002976 4.278474
v -1.226680 0.415790 3.572097
v -1.226680 -0.002976 3.572097
v 1.172203 -0.002976 2.865720
v 1.172203 0.291716 3.572097
v 1.172203 -0.002976 3.572097
v 0.252671 0.415790 4.278474
v 0.252671 0.598754 3.572097
v 0.559182 -0.421742 4.278474
v 1.172203 -0.421742 3.572097
v 1.172203 -0.421742 4.278474
v 1.109241 0.178936 4.984851
v 0.559182 -0.002976 4.984851
v 0.559182 -0.421742 2.865720
v 1.172203 -0.421742 2.159345
v 1.172203 -0.421742 2.865720
v 0.252671 0.415790 2.159345
v 0.252671 0.598754 2.865720
v 0.252671 -0.002976 2.159345
v -0.027238 -0.421742 3.572097
v -1.226680 0.513683 4.278474
v -1.226680 0.567265 2.865720
v -0.027238 -0.421742 2.159345
v -0.027238 0.415790 4.984851
v -0.626959 -0.421742 4.984851
v -0.027238 -0.421742 4.984851
v -1.226680 -0.421742 2.159345
v 0.559182 -0.421742 2.159345
v 0.559182 -0.421742 4.984851
v 1.172203 -0.421742 4.984851
v -1.226680 -0.421742 3.572097
v 0.252671 -0.421742 4.984851
v -1.226680 -0.421742 4.984851
v -0.027238 0.598754 3.572097
v 0.559182 -0.421742 3.572097
v 0.559182 0.303624 4.984851
v -0.626959 0.513683 4.984851
v 1.172203 0.415790 2.865720
v 1.172203 0.179550 8.924033
v 1.172203 -0.002976 9.630410
v 1.172203 -0.002976 8.924033
v -0.626959 -0.002976 9.630410
v -1.226680 0.322227 9.705194
v -1.226680 -0.002976 9.630410
v -1.226680 -0.002976 7.511279
v -1.033963 0.431571 6.804902
v -1.226680 -0.002976 6.804902
v 0.559182 0.387745 6.804902
v 1.172203 -0.002976 6.804902
v 0.559182 -0.002976 6.804902
v -1.226680 -0.421742 7.511279
v -0.626959 -0.421742 6.804902
v -0.626959 -0.421742 7.511279
v 0.559182 0.415790 7.511279
v 0.845379 0.415790 6.804902
v -0.027238 0.598754 7.511279
v -0.626959 0.567265 6.804902
v -0.626959 0.567265 7.511279
v -0.027238 -0.421742 7.511279
v 0.252671 -0.421742 6.804902
v 0.252671 -0.421742 7.511279
v -0.626959 -0.002976 6.804902
v -0.027238 0.415790 6.804902
v -0.027238 -0.002976 6.804902
v 0.252671 0.415790 9.630410
v -0.027238 -0.002976 9.630410
v 0.252671 -0.002976 9.630410
v -0.027238 -0.421742 8.924033
v 0.252671 -0.421742 8.217656
v 0.252671 -0.421742 8.924033
v -0.027238 0.415790 8.924033
v -0.626959 0.415790 8.217656
v -0.626959 0.441371 8.924033
v 0.559182 0.291716 8.217656
v 0.559182 0.179550 8.924033
v -1.226680 -0.421742 8.924033
v -0.626959 -0.421742 8.217656
v -0.626959 -0.421742 8.924033
v -1.226680 -0.002976 8.924033
v -1.226680 0.415790 8.217656
v -1.226680 -0.002976 8.217656
v 1.172203 -0.002976 7.511279
v 1.172203 0.291716 8.217656
v 1.172203 -0.002976 8.217656
v 0.252671 0.415790 8.924033
v 0.252671 0.598754 8.217656
v 0.559182 -0.421742 8.924033
v 1.172203 -0.421742 8.217656
v 1.172203 -0.421742 8.924033
v 1.109241 0.178936 9.630410
v 0.559182 -0.002976 9.630410
v 0.559182 -0.421742 7.511279
v 1.172203 -0.421742 6.804902
v 1.172203 -0.421742 7.511279
v 0.252671 0.415790 6.804902
v 0.252671 0.598754 7.511279
v 0.252671 -0.002976 6.804902
v -0.027238 -0.421742 8.217656
v -1.226680 0.513683 8.924033
v -1.226680 0.567265 7.511279
v -0.027238 -0.421742 6.804902
v -0.027238 0.415790 9.630410
v -0.626959 -0.421742 9.630410
v -0.027238 -0.421742 9.630410
v -1.226680 -0.421742 6.804902
v 0.559182 -0.421742 6.804902
v 0.559182 -0.421742 9.630410
v 1.172203 -0.421742 9.630410
v -1.226680 -0.421742 8.217656
v 0.252671 -0.421742 9.630410
v -1.226680 -0.421742 9.630410
v -0.027238 0.598754 8.217656
v 0.559182 -0.421742 8.217656
v 0.559182 0.303624 9.630410
v -0.626959 0.513683 9.630410
v 1.172203 0.415790 7.511279
v 0.679138 0.179550 4.471967
v 1.385515 -0.002976 4.471967
v 0.679138 -0.002976 4.471967
v 1.385515 -0.002976 6.271131
v 1.460299 0.322227 6.870851
v 1.385515 -0.002976 6.870851
v -0.733615 -0.002976 6.870851
v -1.439992 0.431571 6.678134
v -1.439992 -0.002976 6.870851
v -1.439992 0.387745 5.084989
v -1.439992 -0.002976 4.471967
v -1.439992 -0.002976 5.084989
v -0.733615 -0.421742 6.870851
v -1.439992 -0.421742 6.271131
v -0.733615 -0.421742 6.271131
v -0.733615 0.415790 5.084989
v -1.439992 0.415790 4.798791
v -0.733615 0.598754 5.671409
v -1.439992 0.567265 6.271131
v -0.733615 0.567265 6.271131
v -0.733615 -0.421742 5.671409
v -1.439992 -0.421742 5.391500
v -0.733615 -0.421742 5.391500
v -1.439992 -0.002976 6.271131
v -1.439992 0.415790 5.671409
v -1.439992 -0.002976 5.671409
v 1.385515 0.415790 5.391500
v 1.385515 -0.002976 5.671409
v 1.385515 -0.002976 5.391500
v 0.679138 -0.421742 5.671409
v -0.027238 -0.421742 5.391500
v 0.679138 -0.421742 5.391500
v 0.679138 0.415790 5.671409
v -0.027238 0.415790 6.271131
v 0.679138 0.441371 6.271131
v -0.027238 0.291716 5.084989
v 0.679138 0.179550 5.084989
v 0.679138 -0.421742 6.870851
v -0.027238 -0.421742 6.271131
v 0.679138 -0.421742 6.271131
v 0.679138 -0.002976 6.870851
v -0.027238 0.415790 6.870851
v -0.027238 -0.002976 6.870851
v -0.733615 -0.002976 4.471967
v -0.027238 0.291716 4.471967
v -0.027238 -0.002976 4.471967
v 0.679138 0.415790 5.391500
v -0.027238 0.598754 5.391500
v 0.679138 -0.421742 5.084989
v -0.027238 -0.421742 4.471967
v 0.679138 -0.421742 4.471967
v 1.385515 0.178936 4.534930
v 1.385515 -0.002976 5.084989
v -0.733615 -0.421742 5.084989
v -1.439992 -0.421742 4.471967
v -0.733615 -0.421742 4.471967
v -1.439992 0.415790 5.391500
v -0.733615 0.598754 5.391500
v -1.439992 -0.002976 5.391500
v -0.027238 -0.421742 5.671409
v 0.679138 0.513683 6.870851
v -0.733615 0.567265 6.870851
v -1.439992 -0.421742 5.671409
v 1.385515 0.415790 5.671409
v 1.385515 -0.421742 6.271131
v 1.385515 -0.421742 5.671409
v -1.439992 -0.421742 6.870851
v -1.439992 -0.421742 5.084989
v 1.385515 -0.421742 5.084989
v 1.385515 -0.421742 4.471967
v -0.027238 -0.421742 6.870851
v 1.385515 -0.421742 5.391500
v 1.385515 -0.421742 6.870851
v -0.027238 0.598754 5.671409
v -0.027238 -0.421742 5.084989
v 1.385515 0.303624 5.084989
v 1.385515 0.513683 6.271131
v -0.733615 0.415790 4.471967
v 0.679138 0.179549 -4.835837
v 1.385515 -0.002977 -4.835837
v 0.679138 -0.002977 -4.835837
v 1.385515 -0.002977 -3.036674
v 1.460299 0.322226 -2.436954
v 1.385515 -0.002977 -2.436954
v -0.733615 -0.002977 -2.436954
v -1.439992 0.431570 -2.629669
v -1.439992 -0.002977 -2.436954
v -1.439992 0.387744 -4.222815
v -1.439992 -0.002977 -4.835837
v -1.439992 -0.002977 -4.222815
v -0.733615 -0.421743 -2.436954
v -1.439992 -0.421743 -3.036674
v -0.733615 -0.421743 -3.036674
v -0.733615 0.415789 -4.222815
v -1.439992 0.415789 -4.509012
v -0.733615 0.598753 -3.636395
v -1.439992 0.567264 -3.036674
v -0.733615 0.567264 -3.036674
v -0.733615 -0.421743 -3.636395
v -1.439992 -0.421743 -3.916305
v -0.733615 -0.421743 -3.916305
v -1.439992 -0.002977 -3.036674
v -1.439992 0.415789 -3.636395
v -1.439992 -0.002977 -3.636395
v 1.385515 0.415789 -3.916305
v 1.385515 -0.002977 -3.636395
v 1.385515 -0.002977 -3.916305
v 0.679138 -0.421743 -3.636395
v -0.027238 -0.421743 -3.916305
v 0.679138 -0.421743 -3.916305
v 0.679138 0.415789 -3.636395
v -0.027238 0.415789 -3.036674
v 0.679138 0.441370 -3.036674
v 0.679138 0.179549 -4.222816
v -0.027238 0.291715 -4.835837
v -0.027238 0.291715 -4.222815
v 0.679138 -0.421743 -2.436954
v -0.027238 -0.421743 -3.036674
v 0.679138 -0.421743 -3.036674
v 0.679138 -0.002977 -2.436954
v -0.027238 0.415789 -2.436954
v -0.027238 -0.002977 -2.436954
v -0.733615 -0.002977 -4.835837
v -0.027238 -0.002977 -4.835837
v 0.679138 0.415789 -3.916305
v -0.027238 0.598753 -3.916305
v 0.679138 -0.421743 -4.222816
v -0.027238 -0.421743 -4.835837
v 0.679138 -0.421743 -4.835837
v 1.385515 0.178935 -4.772874
v 1.385515 -0.002977 -4.222816
v -0.733615 -0.421743 -4.222815
v -1.439992 -0.421743 -4.835837
v -0.733615 -0.421743 -4.835837
v -1.439992 0.415789 -3.916305
v -0.733615 0.598753 -3.916305
v -1.439992 -0.002977 -3.916305
v -0.027238 -0.421743 -3.636395
v 0.679138 0.513682 -2.436954
v -0.733615 0.567264 -2.436954
v -1.439992 -0.421743 -3.636395
v 1.385515 0.415789 -3.636395
v 1.385515 -0.421743 -3.036674
v 1.385515 -0.421743 -3.636395
v -1.439992 -0.421743 -2.436954
v -1.439992 -0.421743 -4.222815
v 1.385515 -0.421743 -4.222816
v 1.385515 -0.421743 -4.835837
v -0.027238 -0.421743 -2.436954
v 1.385515 -0.421743 -3.916305
v 1.385515 -0.421743 -2.436954
v -0.027238 0.598753 -3.636395
v -0.027238 -0.421743 -4.222815
v 1.385515 0.303623 -4.222816
v 1.385515 0.513682 -3.036674
v -0.733615 0.415789 -4.835837
v 1.172203 0.179549 -0.383772
v 1.172203 -0.002977 0.322604
v 1.172203 -0.002977 -0.383772
v -0.626959 -0.002977 0.322604
v -1.226680 0.322226 0.397388
v -1.226680 -0.002977 0.322604
v -1.226680 -0.002977 -1.796526
v -1.033963 0.431570 -2.502903
v -1.226680 -0.002977 -2.502903
v 0.559182 0.387744 -2.502903
v 1.172203 -0.002977 -2.502903
v 0.559182 -0.002977 -2.502903
v -1.226680 -0.421743 -1.796526
v -0.626959 -0.421743 -2.502903
v -0.626959 -0.421743 -1.796526
v 0.559182 0.415789 -1.796526
v 0.845379 0.415789 -2.502903
v -0.027238 0.598753 -1.796526
v -0.626959 0.567264 -2.502903
v -0.626959 0.567264 -1.796526
v -0.027238 -0.421743 -1.796526
v 0.252671 -0.421743 -2.502903
v 0.252671 -0.421743 -1.796526
v -0.626959 -0.002977 -2.502903
v -0.027238 0.415789 -2.502903
v -0.027238 -0.002977 -2.502903
v 0.252671 0.415789 0.322604
v -0.027238 -0.002977 0.322604
v 0.252671 -0.002977 0.322604
v -0.027238 -0.421743 -0.383772
v 0.252671 -0.421743 -1.090149
v 0.252671 -0.421743 -0.383772
v -0.027238 0.415789 -0.383772
v -0.626959 0.415789 -1.090149
v -0.626959 0.441370 -0.383772
v 0.559182 0.291715 -1.090149
v 0.559182 0.179549 -0.383772
v -1.226680 -0.421743 -0.383772
v -0.626959 -0.421743 -1.090149
v -0.626959 -0.421743 -0.383772
v -1.226680 -0.002977 -0.383772
v -1.226680 0.415789 -1.090149
v -1.226680 -0.002977 -1.090149
v 1.172203 -0.002977 -1.796526
v 1.172203 0.291715 -1.090149
v 1.172203 -0.002977 -1.090149
v 0.252671 0.415789 -0.383772
v 0.252671 0.598753 -1.090149
v 0.559182 -0.421743 -0.383772
v 1.172203 -0.421743 -1.090149
v 1.172203 -0.421743 -0.383772
v 1.109241 0.178935 0.322604
v 0.559182 -0.002977 0.322604
v 0.559182 -0.421743 -1.796526
v 1.172203 -0.421743 -2.502903
v 1.172203 -0.421743 -1.796526
v 0.252671 0.415789 -2.502903
v 0.252671 0.598753 -1.796526
v 0.252671 -0.002977 -2.502903
v -0.027238 -0.421743 -1.090149
v -1.226680 0.513682 -0.383772
v -1.226680 0.567264 -1.796526
v -0.027238 -0.421743 -2.502903
v -0.027238 0.415789 0.322604
v -0.626959 -0.421743 0.322604
v -0.027238 -0.421743 0.322604
v -1.226680 -0.421743 -2.502903
v 0.559182 -0.421743 -2.502903
v 0.559182 -0.421743 0.322604
v 1.172203 -0.421743 0.322604
v -1.226680 -0.421743 -1.090149
v 0.252671 -0.421743 0.322604
v -1.226680 -0.421743 0.322604
v -0.027238 0.598753 -1.090149
v 0.559182 -0.421743 -1.090149
v 0.559182 0.303623 0.322604
v -0.626959 0.513682 0.322604
v 1.172203 0.415789 -1.796526
v 1.172203 0.179550 2.177175
v 1.172203 -0.002976 2.883550
v 1.172203 -0.002976 2.177175
v -0.626959 -0.002976 2.883550
v -1.226680 0.322227 2.958335
v -1.226680 -0.002976 2.883550
v -1.226680 -0.002977 0.764421
v -1.033963 0.431570 0.058043
v -1.226680 -0.002977 0.058043
v 0.559182 0.387744 0.058043
v 1.172203 -0.002977 0.058043
v 0.559182 -0.002977 0.058043
v -1.226680 -0.421742 0.764421
v -0.626959 -0.421743 0.058044
v -0.626959 -0.421742 0.764421
v 0.559182 0.415789 0.764420
v 0.845379 0.415789 0.058043
v -0.027238 0.598753 0.764420
v -0.626959 0.567264 0.058043
v -0.626959 0.567264 0.764420
v -0.027238 -0.421742 0.764421
v 0.252671 -0.421743 0.058044
v 0.252671 -0.421742 0.764421
v -0.626959 -0.002977 0.058043
v -0.027238 0.415789 0.058043
v -0.027238 -0.002977 0.058043
v 0.252671 0.415790 2.883550
v -0.027238 -0.002976 2.883550
v 0.252671 -0.002976 2.883550
v -0.027238 -0.421742 2.177175
v 0.252671 -0.421742 1.470796
v 0.252671 -0.421742 2.177175
v -0.027238 0.415790 2.177175
v -0.626959 0.415790 1.470796
v -0.626959 0.441371 2.177175
v 0.559182 0.291716 1.470796
v 0.559182 0.179550 2.177175
v -1.226680 -0.421742 2.177175
v -0.626959 -0.421742 1.470796
v -0.626959 -0.421742 2.177175
v -1.226680 -0.002976 2.177175
v -1.226680 0.415790 1.470796
v -1.226680 -0.002976 1.470796
v 1.172203 -0.002977 0.764421
v 1.172203 0.291716 1.470796
v 1.172203 -0.002976 1.470796
v 0.252671 0.415790 2.177175
v 0.252671 0.598754 1.470796
v 0.559182 -0.421742 2.177175
v 1.172203 -0.421742 1.470796
v 1.172203 -0.421742 2.177175
v 1.109241 0.178936 2.883550
v 0.559182 -0.002976 2.883550
v 0.559182 -0.421742 0.764421
v 1.172203 -0.421743 0.058044
v 1.172203 -0.421742 0.764421
v 0.252671 0.415789 0.058043
v 0.252671 0.598753 0.764420
v 0.252671 -0.002977 0.058043
v -0.027238 -0.421742 1.470796
v -1.226680 0.513683 2.177175
v -1.226680 0.567264 0.764420
v -0.027238 -0.421743 0.058044
v -0.027238 0.415790 2.883550
v -0.626959 -0.421742 2.883550
v -0.027238 -0.421742 2.883550
v -1.226680 -0.421743 0.058044
v 0.559182 -0.421743 0.058044
v 0.559182 -0.421742 2.883550
v 1.172203 -0.421742 2.883550
v -1.226680 -0.421742 1.470796
v 0.252671 -0.421742 2.883550
v -1.226680 -0.421742 2.883550
v -0.027238 0.598754 1.470796
v 0.559182 -0.421742 1.470796
v 0.559182 0.303624 2.883550
v -0.626959 0.513683 2.883550
v 1.172203 0.415789 0.764420
v 1.172203 0.179549 -5.029329
v 1.172203 -0.002977 -4.322953
v 1.172203 -0.002977 -5.029329
v -0.626959 -0.002977 -4.322953
v -1.226680 0.322226 -4.248169
v -1.226680 -0.002977 -4.322953
v -1.226680 -0.002977 -6.442084
v -1.033963 0.431570 -7.148460
v -1.226680 -0.002977 -7.148460
v 0.559182 0.387744 -7.148460
v 1.172203 -0.002977 -7.148460
v 0.559182 -0.002977 -7.148460
v -1.226680 -0.421743 -6.442084
v -0.626959 -0.421743 -7.148460
v -0.626959 -0.421743 -6.442084
v 0.559182 0.415789 -6.442084
v 0.845379 0.415789 -7.148460
v -0.027238 0.598753 -6.442084
v -0.626959 0.567264 -7.148460
v -0.626959 0.567264 -6.442084
v -0.027238 -0.421743 -6.442084
v 0.252671 -0.421743 -7.148460
v 0.252671 -0.421743 -6.442084
v -0.626959 -0.002977 -7.148460
v -0.027238 0.415789 -7.148460
v -0.027238 -0.002977 -7.148460
v 0.252671 0.415789 -4.322953
v -0.027238 -0.002977 -4.322953
v 0.252671 -0.002977 -4.322953
v -0.027238 -0.421743 -5.029329
v 0.252671 -0.421743 -5.735707
v 0.252671 -0.421743 -5.029329
v -0.027238 0.415789 -5.029329
v -0.626959 0.415789 -5.735707
v -0.626959 0.441370 -5.029329
v 0.559182 0.291715 -5.735707
v 0.559182 0.179549 -5.029329
v -1.226680 -0.421743 -5.029329
v -0.626959 -0.421743 -5.735707
v -0.626959 -0.421743 -5.029329
v -1.226680 -0.002977 -5.029329
v -1.226680 0.415789 -5.735707
v -1.226680 -0.002977 -5.735707
v 1.172203 -0.002977 -6.442084
v 1.172203 0.291715 -5.735707
v 1.172203 -0.002977 -5.735707
v 0.252671 0.415789 -5.029329
v 0.252671 0.598753 -5.735707
v 0.559182 -0.421743 -5.029329
v 1.172203 -0.421743 -5.735707
v 1.172203 -0.421743 -5.029329
v 1.109241 0.178935 -4.322953
v 0.559182 -0.002977 -4.322953
v 0.559182 -0.421743 -6.442084
v 1.172203 -0.421743 -7.148460
v 1.172203 -0.421743 -6.442084
v 0.252671 0.415789 -7.148460
v 0.252671 0.598753 -6.442084
v 0.252671 -0.002977 -7.148460
v -0.027238 -0.421743 -5.735707
v -1.226680 0.513682 -5.029329
v -1.226680 0.567264 -6.442084
v -0.027238 -0.421743 -7.148460
v -0.027238 0.415789 -4.322953
v -0.626959 -0.421743 -4.322953
v -0.027238 -0.421743 -4.322953
v -1.226680 -0.421743 -7.148460
v 0.559182 -0.421743 -7.148460
v 0.559182 -0.421743 -4.322953
v 1.172203 -0.421743 -4.322953
v -1.226680 -0.421743 -5.735707
v 0.252671 -0.421743 -4.322953
v -1.226680 -0.421743 -4.322953
v -0.027238 0.598753 -5.735707
v 0.559182 -0.421743 -5.735707
v 0.559182 0.303623 -4.322953
v -0.626959 0.513682 -4.322953
v 1.172203 0.415789 -6.442084
v 1.172203 0.179549 -7.590278
v 1.172203 -0.002977 -6.883901
v 1.172203 -0.002977 -7.590278
v -0.626959 -0.002977 -6.883901
v -1.226680 0.322226 -6.809117
v -1.226680 -0.002977 -6.883901
v -1.226680 -0.002977 -9.003032
v -1.033963 0.431570 -9.709407
v -1.226680 -0.002977 -9.709407
v 0.559182 0.387744 -9.709407
v 1.172203 -0.002977 -9.709407
v 0.559182 -0.002977 -9.709407
v -1.226680 -0.421743 -9.003032
v -0.626959 -0.421743 -9.709407
v -0.626959 -0.421743 -9.003032
v 0.559182 0.415789 -9.003032
v 0.845379 0.415789 -9.709407
v -0.027238 0.598753 -9.003032
v -0.626959 0.567264 -9.709407
v -0.626959 0.567264 -9.003032
v -0.027238 -0.421743 -9.003032
v 0.252671 -0.421743 -9.709407
v 0.252671 -0.421743 -9.003032
v -0.626959 -0.002977 -9.709407
v -0.027238 0.415789 -9.709407
v -0.027238 -0.002977 -9.709407
v 0.252671 0.415789 -6.883901
v -0.027238 -0.002977 -6.883901
v 0.252671 -0.002977 -6.883901
v -0.027238 -0.421743 -7.590278
v 0.252671 -0.421743 -8.296655
v 0.252671 -0.421743 -7.590278
v -0.027238 0.415789 -7.590278
v -0.626959 0.415789 -8.296655
v -0.626959 0.441370 -7.590278
v 0.559182 0.291715 -8.296655
v 0.559182 0.179549 -7.590278
v -1.226680 -0.421743 -7.590278
v -0.626959 -0.421743 -8.296655
v -0.626959 -0.421743 -7.590278
v -1.226680 -0.002977 -7.590278
v -1.226680 0.415789 -8.296655
v -1.226680 -0.002977 -8.296655
v 1.172203 -0.002977 -9.003032
v 1.172203 0.291715 -8.296655
v 1.172203 -0.002977 -8.296655
v 0.252671 0.415789 -7.590278
v 0.252671 0.598753 -8.296655
v 0.559182 -0.421743 -7.590278
v 1.172203 -0.421743 -8.296655
v 1.172203 -0.421743 -7.590278
v 1.109241 0.178935 -6.883901
v 0.559182 -0.002977 -6.883901
v 0.559182 -0.421743 -9.003032
v 1.172203 -0.421743 -9.709407
v 1.172203 -0.421743 -9.003032
v 0.252671 0.415789 -9.709407
v 0.252671 0.598753 -9.003032
v 0.252671 -0.002977 -9.709407
v -0.027238 -0.421743 -8.296655
v -1.226680 0.513682 -7.590278
v -1.226680 0.567264 -9.003032
v -0.027238 -0.421743 -9.709407
v -0.027238 0.415789 -6.883901
v -0.626959 -0.421743 -6.883901
v -0.027238 -0.421743 -6.883901
v -1.226680 -0.421743 -9.709407
v 0.559182 -0.421743 -9.709407
v 0.559182 -0.421743 -6.883901
v 1.172203 -0.421743 -6.883901
v -1.226680 -0.421743 -8.296655
v 0.252671 -0.421743 -6.883901
v -1.226680 -0.421743 -6.883901
v -0.027238 0.598753 -8.296655
v 0.559182 -0.421743 -8.296655
v 0.559182 0.303623 -6.883901
v -0.626959 0.513682 -6.883901
v 1.172203 0.415789 -9.003032
v 0.679138 0.179549 -12.042342
v 1.385515 -0.002977 -12.042342
v 0.679138 -0.002977 -12.042342
v 1.385515 -0.002977 -10.243177
v 1.460299 0.322226 -9.643457
v 1.385515 -0.002977 -9.643457
v -0.733615 -0.002977 -9.643457
v -1.439992 0.431570 -9.836175
v -1.439992 -0.002977 -9.643457
v -1.439992 0.387744 -11.429319
v -1.439992 -0.002977 -12.042342
v -1.439992 -0.002977 -11.429319
v -0.733615 -0.421743 -9.643457
v -1.439992 -0.421743 -10.243177
v -0.733615 -0.421743 -10.243177
v -0.733615 0.415789 -11.429319
v -1.439992 0.415789 -11.715516
v -0.733615 0.598753 -10.842899
v -1.439992 0.567264 -10.243177
v -0.733615 0.567264 -10.243177
v -0.733615 -0.421743 -10.842899
v -1.439992 -0.421743 -11.122810
v -0.733615 -0.421743 -11.122810
v -1.439992 -0.002977 -10.243177
v -1.439992 0.415789 -10.842899
v -1.439992 -0.002977 -10.842899
v 1.385515 0.415789 -11.122810
v 1.385515 -0.002977 -10.842899
v 1.385515 -0.002977 -11.122810
v 0.679138 -0.421743 -10.842899
v -0.027238 -0.421743 -11.122810
v 0.679138 -0.421743 -11.122810
v 0.679138 0.415789 -10.842899
v -0.027238 0.415789 -10.243177
v 0.679138 0.441370 -10.243177
v 0.679138 0.179549 -11.429319
v -0.027238 0.291715 -12.042342
v -0.027238 0.291715 -11.429319
v 0.679138 -0.421743 -9.643457
v -0.027238 -0.421743 -10.243177
v 0.679138 -0.421743 -10.243177
v 0.679138 -0.002977 -9.643457
v -0.027238 0.415789 -9.643457
v -0.027238 -0.002977 -9.643457
v -0.733615 -0.002977 -12.042342
v -0.027238 -0.002977 -12.042342
v 0.679138 0.415789 -11.122810
v -0.027238 0.598753 -11.122810
v 0.679138 -0.421743 -11.429319
v -0.027238 -0.421743 -12.042342
v 0.679138 -0.421743 -12.042342
v 1.385515 0.178935 -11.979377
v 1.385515 -0.002977 -11.429319
v -0.733615 -0.421743 -12.042342
v -1.439992 -0.421743 -11.429319
v -1.439992 -0.421743 -12.042342
v -1.439992 0.415789 -11.122810
v -0.733615 0.598753 -11.122810
v -1.439992 -0.002977 -11.122810
v -0.027238 -0.421743 -10.842899
v 0.679138 0.513682 -9.643457
v -0.733615 0.567264 -9.643457
v -1.439992 -0.421743 -10.842899
v 1.385515 0.415789 -10.842899
v 1.385515 -0.421743 -10.243177
v 1.385515 -0.421743 -10.842899
v -1.439992 -0.421743 -9.643457
v 1.385515 -0.421743 -11.429319
v 1.385515 -0.421743 -12.042342
v -0.027238 -0.421743 -9.643457
v 1.385515 -0.421743 -11.122810
v 1.385515 -0.421743 -9.643457
v -0.027238 0.598753 -10.842899
v -0.027238 -0.421743 -11.429319
v 1.385515 0.303623 -11.429319
v -0.733615 -0.421743 -11.429319
v 1.385515 0.513682 -10.243177
v -0.733615 0.415789 -12.042342
vt 0.625000 0.187500
vt 0.500000 0.250000
vt 0.500000 0.187500
vt 0.500000 0.437500
vt 0.625000 0.500000
vt 0.500000 0.500000
vt 0.500000 0.687500
vt 0.625000 0.750000
vt 0.500000 0.750000
vt 0.625000 0.936114
vt 0.500000 1.000000
vt 0.500000 0.936114
vt 0.375000 0.687500
vt 0.312500 0.750000
vt 0.312500 0.687500
vt 0.811114 0.687500
vt 0.875000 0.750000
vt 0.811114 0.750000
vt 0.750000 0.687500
vt 0.687500 0.750000
vt 0.687500 0.687500
vt 0.250000 0.687500
vt 0.220829 0.750000
vt 0.220829 0.687500
vt 0.500000 0.812500
vt 0.625000 0.875000
vt 0.500000 0.875000
vt 0.625000 0.345829
vt 0.500000 0.375000
vt 0.500000 0.345829
vt 0.250000 0.562500
vt 0.220829 0.625000
vt 0.220829 0.562500
vt 0.750000 0.562500
vt 0.687500 0.625000
vt 0.687500 0.562500
vt 0.875000 0.562500
vt 0.811114 0.625000
vt 0.811114 0.562500
vt 0.375000 0.562500
vt 0.312500 0.625000
vt 0.312500 0.562500
vt 0.500000 0.562500
vt 0.625000 0.625000
vt 0.500000 0.625000
vt 0.500000 0.062500
vt 0.625000 0.125000
vt 0.500000 0.125000
vt 0.779171 0.562500
vt 0.779171 0.625000
vt 0.188886 0.562500
vt 0.125000 0.625000
vt 0.125000 0.562500
vt 0.625000 0.250000
vt 0.500000 0.313886
vt 0.188886 0.687500
vt 0.125000 0.750000
vt 0.125000 0.687500
vt 0.779171 0.750000
vt 0.779171 0.687500
vt 0.500000 0.904171
vt 0.250000 0.625000
vt 0.625000 0.562500
vt 0.625000 0.687500
vt 0.250000 0.750000
vt 0.625000 0.375000
vt 0.375000 0.437500
vt 0.375000 0.375000
vt 0.375000 0.812500
vt 0.375000 0.750000
vt 0.375000 0.936114
vt 0.375000 0.904171
vt 0.375000 0.313886
vt 0.375000 0.250000
vt 0.375000 0.125000
vt 0.375000 0.062500
vt 0.375000 0.625000
vt 0.375000 0.345829
vt 0.375000 0.875000
vt 0.375000 1.000000
vt 0.375000 0.500000
vt 0.375000 0.187500
vt 0.750000 0.750000
vt 0.750000 0.625000
vt 0.188886 0.625000
vt 0.625000 0.313886
vt 0.188886 0.750000
vt 0.220829 0.500000
vt 0.188886 0.500000
vt 0.779171 0.500000
vt 0.750000 0.500000
vt 0.687500 0.500000
vt 0.312500 0.500000
vt 0.250000 0.500000
vt 0.125000 0.500000
vt 0.811114 0.500000
vt 0.875000 0.500000
vt 0.500000 0.000000
vt 0.375000 0.000000
vt 0.625000 0.062500
vt 0.875000 0.625000
vt 0.625000 0.187500
vt 0.500000 0.250000
vt 0.500000 0.187500
vt 0.500000 0.437500
vt 0.625000 0.500000
vt 0.500000 0.500000
vt 0.500000 0.687500
vt 0.625000 0.750000
vt 0.500000 0.750000
vt 0.625000 0.936114
vt 0.500000 1.000000
vt 0.500000 0.936114
vt 0.375000 0.687500
vt 0.312500 0.750000
vt 0.312500 0.687500
vt 0.811114 0.687500
vt 0.875000 0.750000
vt 0.811114 0.750000
vt 0.750000 0.687500
vt 0.687500 0.750000
vt 0.687500 0.687500
vt 0.250000 0.687500
vt 0.220829 0.750000
vt 0.220829 0.687500
vt 0.500000 0.812500
vt 0.625000 0.875000
vt 0.500000 0.875000
vt 0.625000 0.345829
vt 0.500000 0.375000
vt 0.500000 0.345829
vt 0.250000 0.562500
vt 0.220829 0.625000
vt 0.220829 0.562500
vt 0.750000 0.562500
vt 0.687500 0.625000
vt 0.687500 0.562500
vt 0.875000 0.562500
vt 0.811114 0.625000
vt 0.811114 0.562500
vt 0.375000 0.562500
vt 0.312500 0.625000
vt 0.312500 0.562500
vt 0.500000 0.562500
vt 0.625000 0.625000
vt 0.500000 0.625000
vt 0.500000 0.062500
vt 0.625000 0.125000
vt 0.500000 0.125000
vt 0.779171 0.562500
vt 0.779171 0.625000
vt 0.188886 0.562500
vt 0.125000 0.625000
vt 0.125000 0.562500
vt 0.625000 0.250000
vt 0.500000 0.313886
vt 0.188886 0.687500
vt 0.125000 0.750000
vt 0.125000 0.687500
vt 0.779171 0.750000
vt 0.779171 0.687500
vt 0.500000 0.904171
vt 0.250000 0.625000
vt 0.625000 0.562500
vt 0.625000 0.687500
vt 0.250000 0.750000
vt 0.625000 0.375000
vt 0.375000 0.437500
vt 0.375000 0.375000
vt 0.375000 0.812500
vt 0.375000 0.750000
vt 0.375000 0.936114
vt 0.375000 0.904171
vt 0.375000 0.313886
vt 0.375000 0.250000
vt 0.375000 0.125000
vt 0.375000 0.062500
vt 0.375000 0.625000
vt 0.375000 0.345829
vt 0.375000 0.875000
vt 0.375000 1.000000
vt 0.375000 0.500000
vt 0.375000 0.187500
vt 0.750000 0.750000
vt 0.750000 0.625000
vt 0.188886 0.625000
vt 0.625000 0.313886
vt 0.188886 0.750000
vt 0.220829 0.500000
vt 0.188886 0.500000
vt 0.779171 0.500000
vt 0.750000 0.500000
vt 0.687500 0.500000
vt 0.312500 0.500000
vt 0.250000 0.500000
vt 0.125000 0.500000
vt 0.811114 0.500000
vt 0.875000 0.500000
vt 0.500000 0.000000
vt 0.375000 0.000000
vt 0.625000 0.062500
vt 0.875000 0.625000
vt 0.625000 0.187500
vt 0.500000 0.250000
vt 0.500000 0.187500
vt 0.500000 0.437500
vt 0.625000 0.500000
vt 0.500000 0.500000
vt 0.500000 0.687500
vt 0.625000 0.750000
vt 0.500000 0.750000
vt 0.625000 0.936114
vt 0.500000 1.000000
vt 0.500000 0.936114
vt 0.375000 0.687500
vt 0.312500 0.750000
vt 0.312500 0.687500
vt 0.811114 0.687500
vt 0.875000 0.750000
vt 0.811114 0.750000
vt 0.750000 0.687500
vt 0.687500 0.750000
vt 0.687500 0.687500
vt 0.250000 0.687500
vt 0.220829 0.750000
vt 0.220829 0.687500
vt 0.500000 0.812500
vt 0.625000 0.875000
vt 0.500000 0.875000
vt 0.625000 0.345829
vt 0.500000 0.375000
vt 0.500000 0.345829
vt 0.250000 0.562500
vt 0.220829 0.625000
vt 0.220829 0.562500
vt 0.750000 0.562500
vt 0.687500 0.625000
vt 0.687500 0.562500
vt 0.875000 0.562500
vt 0.811114 0.625000
vt 0.811114 0.562500
vt 0.375000 0.562500
vt 0.312500 0.625000
vt 0.312500 0.562500
vt 0.500000 0.562500
vt 0.625000 0.625000
vt 0.500000 0.625000
vt 0.500000 0.062500
vt 0.625000 0.125000
vt 0.500000 0.125000
vt 0.779171 0.562500
vt 0.779171 0.625000
vt 0.188886 0.562500
vt 0.125000 0.625000
vt 0.125000 0.562500
vt 0.625000 0.250000
vt 0.500000 0.313886
vt 0.188886 0.687500
vt 0.125000 0.750000
vt 0.125000 0.687500
vt 0.779171 0.750000
vt 0.779171 0.687500
vt 0.500000 0.904171
vt 0.250000 0.625000
vt 0.625000 0.562500
vt 0.625000 0.687500
vt 0.250000 0.750000
vt 0.625000 0.375000
vt 0.375000 0.437500
vt 0.375000 0.375000
vt 0.375000 0.812500
vt 0.375000 0.750000
vt 0.375000 0.936114
vt 0.375000 0.904171
vt 0.375000 0.313886
vt 0.375000 0.250000
vt 0.375000 0.125000
vt 0.375000 0.062500
vt 0.375000 0.625000
vt 0.375000 0.345829
vt 0.375000 0.875000
vt 0.375000 1.000000
vt 0.375000 0.500000
vt 0.375000 0.187500
vt 0.750000 0.750000
vt 0.750000 0.625000
vt 0.188886 0.625000
vt 0.625000 0.313886
vt 0.188886 0.750000
vt 0.220829 0.500000
vt 0.188886 0.500000
vt 0.779171 0.500000
vt 0.750000 0.500000
vt 0.687500 0.500000
vt 0.312500 0.500000
vt 0.250000 0.500000
vt 0.125000 0.500000
vt 0.811114 0.500000
vt 0.875000 0.500000
vt 0.500000 0.000000
vt 0.375000 0.000000
vt 0.625000 0.062500
vt 0.875000 0.625000
vt 0.625000 0.187500
vt 0.500000 0.250000
vt 0.500000 0.187500
vt 0.500000 0.437500
vt 0.625000 0.500000
vt 0.500000 0.500000
vt 0.500000 0.687500
vt 0.625000 0.750000
vt 0.500000 0.750000
vt 0.625000 0.936114
vt 0.500000 1.000000
vt 0.500000 0.936114
vt 0.375000 0.687500
vt 0.312500 0.750000
vt 0.312500 0.687500
vt 0.811114 0.687500
vt 0.875000 0.750000
vt 0.811114 0.750000
vt 0.750000 0.687500
vt 0.687500 0.750000
vt 0.687500 0.687500
vt 0.250000 0.687500
vt 0.220829 0.750000
vt 0.220829 0.687500
vt 0.500000 0.812500
vt 0.625000 0.875000
vt 0.500000 0.875000
vt 0.625000 0.345829
vt 0.500000 0.375000
vt 0.500000 0.345829
vt 0.250000 0.562500
vt 0.220829 0.625000
vt 0.220829 0.562500
vt 0.750000 0.562500
vt 0.687500 0.625000
vt 0.687500 0.562500
vt 0.875000 0.562500
vt 0.811114 0.625000
vt 0.811114 0.562500
vt 0.375000 0.562500
vt 0.312500 0.625000
vt 0.312500 0.562500
vt 0.500000 0.562500
vt 0.625000 0.625000
vt 0.500000 0.625000
vt 0.500000 0.062500
vt 0.625000 0.125000
vt 0.500000 0.125000
vt 0.779171 0.562500
vt 0.779171 0.625000
vt 0.188886 0.562500
vt 0.125000 0.625000
vt 0.125000 0.562500
vt 0.625000 0.250000
vt 0.500000 0.313886
vt 0.188886 0.687500
vt 0.125000 0.750000
vt 0.125000 0.687500
vt 0.779171 0.750000
vt 0.779171 0.687500
vt 0.500000 0.904171
vt 0.250000 0.625000
vt 0.625000 0.562500
vt 0.625000 0.687500
vt 0.250000 0.750000
vt 0.625000 0.375000
vt 0.375000 0.437500
vt 0.375000 0.375000
vt 0.375000 0.812500
vt 0.375000 0.750000
vt 0.375000 0.936114
vt 0.375000 0.904171
vt 0.375000 0.313886
vt 0.375000 0.250000
vt 0.375000 0.125000
vt 0.375000 0.062500
vt 0.375000 0.625000
vt 0.375000 0.345829
vt 0.375000 0.875000
vt 0.375000 1.000000
vt 0.375000 0.500000
vt 0.375000 0.187500
vt 0.750000 0.750000
vt 0.750000 0.625000
vt 0.188886 0.625000
vt 0.625000 0.313886
vt 0.188886 0.750000
vt 0.220829 0.500000
vt 0.188886 0.500000
vt 0.779171 0.500000
vt 0.750000 0.500000
vt 0.687500 0.500000
vt 0.312500 0.500000
vt 0.250000 0.500000
vt 0.125000 0.500000
vt 0.811114 0.500000
vt 0.875000 0.500000
vt 0.500000 0.000000
vt 0.375000 0.000000
vt 0.625000 0.062500
vt 0.875000 0.625000
vt 0.625000 0.187500
vt 0.500000 0.250000
vt 0.500000 0.187500
vt 0.500000 0.437500
vt 0.625000 0.500000
vt 0.500000 0.500000
vt 0.500000 0.687500
vt 0.625000 0.750000
vt 0.500000 0.750000
vt 0.625000 0.936114
vt 0.500000 1.000000
vt 0.500000 0.936114
vt 0.375000 0.687500
vt 0.312500 0.750000
vt 0.312500 0.687500
vt 0.811114 0.687500
vt 0.875000 0.750000
vt 0.811114 0.750000
vt 0.750000 0.687500
vt 0.687500 0.750000
vt 0.687500 0.687500
vt 0.250000 0.687500
vt 0.220829 0.750000
vt 0.220829 0.687500
vt 0.500000 0.812500
vt 0.625000 0.875000
vt 0.500000 0.875000
vt 0.625000 0.345829
vt 0.500000 0.375000
vt 0.500000 0.345829
vt 0.250000 0.562500
vt 0.220829 0.625000
vt 0.220829 0.562500
vt 0.750000 0.562500
vt 0.687500 0.625000
vt 0.687500 0.562500
vt 0.811114 0.562500
vt 0.875000 0.625000
vt 0.811114 0.625000
vt 0.375000 0.562500
vt 0.312500 0.625000
vt 0.312500 0.562500
vt 0.500000 0.562500
vt 0.625000 0.625000
vt 0.500000 0.625000
vt 0.500000 0.062500
vt 0.625000 0.125000
vt 0.500000 0.125000
vt 0.779171 0.562500
vt 0.779171 0.625000
vt 0.188886 0.562500
vt 0.125000 0.625000
vt 0.125000 0.562500
vt 0.625000 0.250000
vt 0.500000 0.313886
vt 0.188886 0.687500
vt 0.125000 0.750000
vt 0.125000 0.687500
vt 0.779171 0.750000
vt 0.779171 0.687500
vt 0.500000 0.904171
vt 0.250000 0.625000
vt 0.625000 0.562500
vt 0.625000 0.687500
vt 0.250000 0.750000
vt 0.625000 0.375000
vt 0.375000 0.437500
vt 0.375000 0.375000
vt 0.375000 0.812500
vt 0.375000 0.750000
vt 0.375000 0.936114
vt 0.375000 0.904171
vt 0.375000 0.313886
vt 0.375000 0.250000
vt 0.375000 0.125000
vt 0.375000 0.062500
vt 0.375000 0.625000
vt 0.375000 0.345829
vt 0.375000 0.875000
vt 0.375000 1.000000
vt 0.375000 0.500000
vt 0.375000 0.187500
vt 0.750000 0.750000
vt 0.750000 0.625000
vt 0.188886 0.625000
vt 0.625000 0.313886
vt 0.188886 0.750000
vt 0.220829 0.500000
vt 0.188886 0.500000
vt 0.779171 0.500000
vt 0.750000 0.500000
vt 0.687500 0.500000
vt 0.312500 0.500000
vt 0.250000 0.500000
vt 0.125000 0.500000
vt 0.811114 0.500000
vt 0.875000 0.500000
vt 0.500000 0.000000
vt 0.375000 0.000000
vt 0.625000 0.062500
vt 0.625000 0.187500
vt 0.500000 0.250000
vt 0.500000 0.187500
vt 0.500000 0.437500
vt 0.625000 0.500000
vt 0.500000 0.500000
vt 0.500000 0.687500
vt 0.625000 0.750000
vt 0.500000 0.750000
vt 0.625000 0.936114
vt 0.500000 1.000000
vt 0.500000 0.936114
vt 0.375000 0.687500
vt 0.312500 0.750000
vt 0.312500 0.687500
vt 0.811114 0.687500
vt 0.875000 0.750000
vt 0.811114 0.750000
vt 0.750000 0.687500
vt 0.687500 0.750000
vt 0.687500 0.687500
vt 0.250000 0.687500
vt 0.220829 0.750000
vt 0.220829 0.687500
vt 0.500000 0.812500
vt 0.625000 0.875000
vt 0.500000 0.875000
vt 0.625000 0.345829
vt 0.500000 0.375000
vt 0.500000 0.345829
vt 0.250000 0.562500
vt 0.220829 0.625000
vt 0.220829 0.562500
vt 0.750000 0.562500
vt 0.687500 0.625000
vt 0.687500 0.562500
vt 0.875000 0.562500
vt 0.811114 0.625000
vt 0.811114 0.562500
vt 0.375000 0.562500
vt 0.312500 0.625000
vt 0.312500 0.562500
vt 0.500000 0.562500
vt 0.625000 0.625000
vt 0.500000 0.625000
vt 0.500000 0.062500
vt 0.625000 0.125000
vt 0.500000 0.125000
vt 0.779171 0.562500
vt 0.779171 0.625000
vt 0.188886 0.562500
vt 0.125000 0.625000
vt 0.125000 0.562500
vt 0.625000 0.250000
vt 0.500000 0.313886
vt 0.188886 0.687500
vt 0.125000 0.750000
vt 0.125000 0.687500
vt 0.779171 0.750000
vt 0.779171 0.687500
vt 0.500000 0.904171
vt 0.250000 0.625000
vt 0.625000 0.562500
vt 0.625000 0.687500
vt 0.250000 0.750000
vt 0.625000 0.375000
vt 0.375000 0.437500
vt 0.375000 0.375000
vt 0.375000 0.812500
vt 0.375000 0.750000
vt 0.375000 0.936114
vt 0.375000 0.904171
vt 0.375000 0.313886
vt 0.375000 0.250000
vt 0.375000 0.125000
vt 0.375000 0.062500
vt 0.375000 0.625000
vt 0.375000 0.345829
vt 0.375000 0.875000
vt 0.375000 1.000000
vt 0.375000 0.500000
vt 0.375000 0.187500
vt 0.750000 0.750000
vt 0.750000 0.625000
vt 0.188886 0.625000
vt 0.625000 0.313886
vt 0.188886 0.750000
vt 0.220829 0.500000
vt 0.188886 0.500000
vt 0.779171 0.500000
vt 0.750000 0.500000
vt 0.687500 0.500000
vt 0.312500 0.500000
vt 0.250000 0.500000
vt 0.125000 0.500000
vt 0.811114 0.500000
vt 0.875000 0.500000
vt 0.500000 0.000000
vt 0.375000 0.000000
vt 0.625000 0.062500
vt 0.875000 0.625000
vt 0.625000 0.187500
vt 0.500000 0.250000
vt 0.500000 0.187500
vt 0.500000 0.437500
vt 0.625000 0.500000
vt 0.500000 0.500000
vt 0.500000 0.687500
vt 0.625000 0.750000
vt 0.500000 0.750000
vt 0.625000 0.936114
vt 0.500000 1.000000
vt 0.500000 0.936114
vt 0.375000 0.687500
vt 0.312500 0.750000
vt 0.312500 0.687500
vt 0.811114 0.687500
vt 0.875000 0.750000
vt 0.811114 0.750000
vt 0.750000 0.687500
vt 0.687500 0.750000
vt 0.687500 0.687500
vt 0.250000 0.687500
vt 0.220829 0.750000
vt 0.220829 0.687500
vt 0.500000 0.812500
vt 0.625000 0.875000
vt 0.500000 0.875000
vt 0.625000 0.345829
vt 0.500000 0.375000
vt 0.500000 0.345829
vt 0.250000 0.562500
vt 0.220829 0.625000
vt 0.220829 0.562500
vt 0.750000 0.562500
vt 0.687500 0.625000
vt 0.687500 0.562500
vt 0.875000 0.562500
vt 0.811114 0.625000
vt 0.811114 0.562500
vt 0.375000 0.562500
vt 0.312500 0.625000
vt 0.312500 0.562500
vt 0.500000 0.562500
vt 0.625000 0.625000
vt 0.500000 0.625000
vt 0.500000 0.062500
vt 0.625000 0.125000
vt 0.500000 0.125000
vt 0.779171 0.562500
vt 0.779171 0.625000
vt 0.188886 0.562500
vt 0.125000 0.625000
vt 0.125000 0.562500
vt 0.625000 0.250000
vt 0.500000 0.313886
vt 0.188886 0.687500
vt 0.125000 0.750000
vt 0.125000 0.687500
vt 0.779171 0.750000
vt 0.779171 0.687500
vt 0.500000 0.904171
vt 0.250000 0.625000
vt 0.625000 0.562500
vt 0.625000 0.687500
vt 0.250000 0.750000
vt 0.625000 0.375000
vt 0.375000 0.437500
vt 0.375000 0.375000
vt 0.375000 0.812500
vt 0.375000 0.750000
vt 0.375000 0.936114
vt 0.375000 0.904171
vt 0.375000 0.313886
vt 0.375000 0.250000
vt 0.375000 0.125000
vt 0.375000 0.062500
vt 0.375000 0.625000
vt 0.375000 0.345829
vt 0.375000 0.875000
vt 0.375000 1.000000
vt 0.375000 0.500000
vt 0.375000 0.187500
vt 0.750000 0.750000
vt 0.750000 0.625000
vt 0.188886 0.625000
vt 0.625000 0.313886
vt 0.188886 0.750000
vt 0.220829 0.500000
vt 0.188886 0.500000
vt 0.779171 0.500000
vt 0.750000 0.500000
vt 0.687500 0.500000
vt 0.312500 0.500000
vt 0.250000 0.500000
vt 0.125000 0.500000
vt 0.811114 0.500000
vt 0.875000 0.500000
vt 0.500000 0.000000
vt 0.375000 0.000000
vt 0.625000 0.062500
vt 0.875000 0.625000
vt 0.625000 0.187500
vt 0.500000 0.250000
vt 0.500000 0.187500
vt 0.500000 0.437500
vt 0.625000 0.500000
vt 0.500000 0.500000
vt 0.500000 0.687500
vt 0.625000 0.750000
vt 0.500000 0.750000
vt 0.625000 0.936114
vt 0.500000 1.000000
vt 0.500000 0.936114
vt 0.375000 0.687500
vt 0.312500 0.750000
vt 0.312500 0.687500
vt 0.811114 0.687500
vt 0.875000 0.750000
vt 0.811114 0.750000
vt 0.750000 0.687500
vt 0.687500 0.750000
vt 0.687500 0.687500
vt 0.250000 0.687500
vt 0.220829 0.750000
vt 0.220829 0.687500
vt 0.500000 0.812500
vt 0.625000 0.875000
vt 0.500000 0.875000
vt 0.625000 0.345829
vt 0.500000 0.375000
vt 0.500000 0.345829
vt 0.250000 0.562500
vt 0.220829 0.625000
vt 0.220829 0.562500
vt 0.750000 0.562500
vt 0.687500 0.625000
vt 0.687500 0.562500
vt 0.875000 0.562500
vt 0.811114 0.625000
vt 0.811114 0.562500
vt 0.375000 0.562500
vt 0.312500 0.625000
vt 0.312500 0.562500
vt 0.500000 0.562500
vt 0.625000 0.625000
vt 0.500000 0.625000
vt 0.500000 0.062500
vt 0.625000 0.125000
vt 0.500000 0.125000
vt 0.779171 0.562500
vt 0.779171 0.625000
vt 0.188886 0.562500
vt 0.125000 0.625000
vt 0.125000 0.562500
vt 0.625000 0.250000
vt 0.500000 0.313886
vt 0.188886 0.687500
vt 0.125000 0.750000
vt 0.125000 0.687500
vt 0.779171 0.750000
vt 0.779171 0.687500
vt 0.500000 0.904171
vt 0.250000 0.625000
vt 0.625000 0.562500
vt 0.625000 0.687500
vt 0.250000 0.750000
vt 0.625000 0.375000
vt 0.375000 0.437500
vt 0.375000 0.375000
vt 0.375000 0.812500
vt 0.375000 0.750000
vt 0.375000 0.936114
vt 0.375000 0.904171
vt 0.375000 0.313886
vt 0.375000 0.250000
vt 0.375000 0.125000
vt 0.375000 0.062500
vt 0.375000 0.625000
vt 0.375000 0.345829
vt 0.375000 0.875000
vt 0.375000 1.000000
vt 0.375000 0.500000
vt 0.375000 0.187500
vt 0.750000 0.750000
vt 0.750000 0.625000
vt 0.188886 0.625000
vt 0.625000 0.313886
vt 0.188886 0.750000
vt 0.220829 0.500000
vt 0.188886 0.500000
vt 0.779171 0.500000
vt 0.750000 0.500000
vt 0.687500 0.500000
vt 0.312500 0.500000
vt 0.250000 0.500000
vt 0.125000 0.500000
vt 0.811114 0.500000
vt 0.875000 0.500000
vt 0.500000 0.000000
vt 0.375000 0.000000
vt 0.625000 0.062500
vt 0.875000 0.625000
vt 0.625000 0.187500
vt 0.500000 0.250000
vt 0.500000 0.187500
vt 0.500000 0.437500
vt 0.625000 0.500000
vt 0.500000 0.500000
vt 0.500000 0.687500
vt 0.625000 0.750000
vt 0.500000 0.750000
vt 0.625000 0.936114
vt 0.500000 1.000000
vt 0.500000 0.936114
vt 0.375000 0.687500
vt 0.312500 0.750000
vt 0.312500 0.687500
vt 0.811114 0.687500
vt 0.875000 0.750000
vt 0.811114 0.750000
vt 0.750000 0.687500
vt 0.687500 0.750000
vt 0.687500 0.687500
vt 0.250000 0.687500
vt 0.220829 0.750000
vt 0.220829 0.687500
vt 0.500000 0.812500
vt 0.625000 0.875000
vt 0.500000 0.875000
vt 0.625000 0.345829
vt 0.500000 0.375000
vt 0.500000 0.345829
vt 0.250000 0.562500
vt 0.220829 0.625000
vt 0.220829 0.562500
vt 0.750000 0.562500
vt 0.687500 0.625000
vt 0.687500 0.562500
vt 0.875000 0.562500
vt 0.811114 0.625000
vt 0.811114 0.562500
vt 0.375000 0.562500
vt 0.312500 0.625000
vt 0.312500 0.562500
vt 0.500000 0.562500
vt 0.625000 0.625000
vt 0.500000 0.625000
vt 0.500000 0.062500
vt 0.625000 0.125000
vt 0.500000 0.125000
vt 0.779171 0.562500
vt 0.779171 0.625000
vt 0.188886 0.562500
vt 0.125000 0.625000
vt 0.125000 0.562500
vt 0.625000 0.250000
vt 0.500000 0.313886
vt 0.188886 0.687500
vt 0.125000 0.750000
vt 0.125000 0.687500
vt 0.779171 0.750000
vt 0.779171 0.687500
vt 0.500000 0.904171
vt 0.250000 0.625000
vt 0.625000 0.562500
vt 0.625000 0.687500
vt 0.250000 0.750000
vt 0.625000 0.375000
vt 0.375000 0.437500
vt 0.375000 0.375000
vt 0.375000 0.812500
vt 0.375000 0.750000
vt 0.375000 0.936114
vt 0.375000 0.904171
vt 0.375000 0.313886
vt 0.375000 0.250000
vt 0.375000 0.125000
vt 0.375000 0.062500
vt 0.375000 0.625000
vt 0.375000 0.345829
vt 0.375000 0.875000
vt 0.375000 1.000000
vt 0.375000 0.500000
vt 0.375000 0.187500
vt 0.750000 0.750000
vt 0.750000 0.625000
vt 0.188886 0.625000
vt 0.625000 0.313886
vt 0.188886 0.750000
vt 0.220829 0.500000
vt 0.188886 0.500000
vt 0.779171 0.500000
vt 0.750000 0.500000
vt 0.687500 0.500000
vt 0.312500 0.500000
vt 0.250000 0.500000
vt 0.125000 0.500000
vt 0.811114 0.500000
vt 0.875000 0.500000
vt 0.500000 0.000000
vt 0.375000 0.000000
vt 0.625000 0.062500
vt 0.875000 0.625000
vt 0.625000 0.187500
vt 0.500000 0.250000
vt 0.500000 0.187500
vt 0.500000 0.437500
vt 0.625000 0.500000
vt 0.500000 0.500000
vt 0.500000 0.687500
vt 0.625000 0.750000
vt 0.500000 0.750000
vt 0.625000 0.936114
vt 0.500000 1.000000
vt 0.500000 0.936114
vt 0.375000 0.687500
vt 0.312500 0.750000
vt 0.312500 0.687500
vt 0.811114 0.687500
vt 0.875000 0.750000
vt 0.811114 0.750000
vt 0.750000 0.687500
vt 0.687500 0.750000
vt 0.687500 0.687500
vt 0.250000 0.687500
vt 0.220829 0.750000
vt 0.220829 0.687500
vt 0.500000 0.812500
vt 0.625000 0.875000
vt 0.500000 0.875000
vt 0.625000 0.345829
vt 0.500000 0.375000
vt 0.500000 0.345829
vt 0.250000 0.562500
vt 0.220829 0.625000
vt 0.220829 0.562500
vt 0.750000 0.562500
vt 0.687500 0.625000
vt 0.687500 0.562500
vt 0.811114 0.562500
vt 0.875000 0.625000
vt 0.811114 0.625000
vt 0.375000 0.562500
vt 0.312500 0.625000
vt 0.312500 0.562500
vt 0.500000 0.562500
vt 0.625000 0.625000
vt 0.500000 0.625000
vt 0.500000 0.062500
vt 0.625000 0.125000
vt 0.500000 0.125000
vt 0.779171 0.562500
vt 0.779171 0.625000
vt 0.188886 0.562500
vt 0.125000 0.625000
vt 0.125000 0.562500
vt 0.625000 0.250000
vt 0.500000 0.313886
vt 0.125000 0.687500
vt 0.188886 0.750000
vt 0.125000 0.750000
vt 0.779171 0.750000
vt 0.779171 0.687500
vt 0.500000 0.904171
vt 0.250000 0.625000
vt 0.625000 0.562500
vt 0.625000 0.687500
vt 0.250000 0.750000
vt 0.625000 0.375000
vt 0.375000 0.437500
vt 0.375000 0.375000
vt 0.375000 0.812500
vt 0.375000 0.750000
vt 0.375000 0.936114
vt 0.375000 0.904171
vt 0.375000 0.313886
vt 0.375000 0.250000
vt 0.375000 0.125000
vt 0.375000 0.062500
vt 0.375000 0.625000
vt 0.375000 0.345829
vt 0.375000 0.875000
vt 0.375000 1.000000
vt 0.375000 0.500000
vt 0.375000 0.187500
vt 0.750000 0.750000
vt 0.750000 0.625000
vt 0.188886 0.625000
vt 0.625000 0.313886
vt 0.188886 0.687500
vt 0.220829 0.500000
vt 0.188886 0.500000
vt 0.779171 0.500000
vt 0.750000 0.500000
vt 0.687500 0.500000
vt 0.312500 0.500000
vt 0.250000 0.500000
vt 0.125000 0.500000
vt 0.811114 0.500000
vt 0.875000 0.500000
vt 0.500000 0.000000
vt 0.375000 0.000000
vt 0.625000 0.062500
vt 0.625000 0.437500
vt 0.625000 1.000000
vt 0.875000 0.687500
vt 0.625000 0.812500
vt 0.625000 0.904171
vt 0.625000 0.000000
vt 0.625000 0.437500
vt 0.625000 1.000000
vt 0.875000 0.687500
vt 0.625000 0.812500
vt 0.625000 0.904171
vt 0.625000 0.000000
vt 0.625000 0.437500
vt 0.625000 1.000000
vt 0.875000 0.687500
vt 0.625000 0.812500
vt 0.625000 0.904171
vt 0.625000 0.000000
vt 0.625000 0.437500
vt 0.625000 1.000000
vt 0.875000 0.687500
vt 0.625000 0.812500
vt 0.625000 0.904171
vt 0.625000 0.000000
vt 0.625000 0.437500
vt 0.625000 1.000000
vt 0.875000 0.687500
vt 0.625000 0.812500
vt 0.875000 0.562500
vt 0.625000 0.904171
vt 0.625000 0.000000
vt 0.625000 0.437500
vt 0.625000 1.000000
vt 0.875000 0.687500
vt 0.625000 0.812500
vt 0.625000 0.904171
vt 0.625000 0.000000
vt 0.625000 0.437500
vt 0.625000 1.000000
vt 0.875000 0.687500
vt 0.625000 0.812500
vt 0.625000 0.904171
vt 0.625000 0.000000
vt 0.625000 0.437500
vt 0.625000 1.000000
vt 0.875000 0.687500
vt 0.625000 0.812500
vt 0.625000 0.904171
vt 0.625000 0.000000
vt 0.625000 0.437500
vt 0.625000 1.000000
vt 0.875000 0.687500
vt 0.625000 0.812500
vt 0.625000 0.904171
vt 0.625000 0.000000
vt 0.625000 0.437500
vt 0.625000 1.000000
vt 0.875000 0.687500
vt 0.625000 0.812500
vt 0.875000 0.562500
vt 0.625000 0.904171
vt 0.625000 0.000000
vn 1.0000 0.0000 0.0000
vn 0.0000 -0.2241 0.9746
vn -0.9141 0.4054 0.0000
vn -0.0000 0.0000 -1.0000
vn 0.0000 -1.0000 0.0000
vn -0.0974 0.9945 -0.0395
vn -0.0524 0.9986 -0.0000
vn 0.0000 0.0000 1.0000
vn 0.0426 0.9984 -0.0362
vn 0.0000 0.9876 0.1568
vn -1.0000 0.0000 0.0000
vn 0.6962 0.6950 0.1800
vn 0.5003 0.8382 -0.2171
vn 0.1186 0.9835 -0.1363
vn 0.0000 0.9820 -0.1886
vn 0.0000 0.9681 -0.2507
vn 0.0000 0.9681 0.2507
vn 0.0000 1.0000 -0.0000
vn -0.2700 0.9352 0.2292
vn 0.3437 0.9391 -0.0000
vn 0.2179 0.9613 -0.1688
vn 0.1603 0.9819 -0.1005
vn 0.0000 0.9778 0.2097
vn 0.5126 0.8587 -0.0000
vn -0.2859 0.9370 0.2009
vn 0.0000 0.9849 0.1730
vn 0.9746 -0.2241 0.0000
vn 0.0000 0.4054 0.9141
vn -0.0395 0.9945 0.0974
vn 0.0000 0.9986 0.0524
vn -0.0362 0.9984 -0.0426
vn 0.1568 0.9876 -0.0000
vn 0.1800 0.6950 -0.6962
vn -0.2171 0.8382 -0.5003
vn -0.1363 0.9835 -0.1186
vn -0.2593 0.9162 0.3055
vn -0.2507 0.9681 0.0000
vn 0.2507 0.9681 0.0000
vn 0.2292 0.9352 0.2700
vn 0.0000 0.9391 -0.3437
vn -0.1688 0.9613 -0.2179
vn -0.1005 0.9819 -0.1603
vn 0.2097 0.9778 -0.0000
vn 0.0000 0.8587 -0.5126
vn 0.2009 0.9370 0.2859
vn 0.1730 0.9849 -0.0000
vn 0.9416 0.3259 0.0842
vn 0.1237 0.0000 0.9923
vn -0.9647 0.0000 -0.2632
vn 0.2375 0.9404 -0.2436
vn -0.2832 0.9284 0.2405
vn 0.6057 0.7859 0.1248
vn 0.0910 0.9951 -0.0395
vn 0.0000 0.9993 -0.0362
vn -0.3163 0.9487 0.0000
vn 0.1191 0.9877 -0.1011
vn 0.6046 0.7845 -0.1378
vn 0.0000 1.0000 0.0009
vn 0.0426 0.9991 -0.0000
vn 0.7023 0.7011 0.1232
vn 0.7406 0.5780 -0.3427
vn 0.0842 0.3259 -0.9416
vn 0.9923 0.0000 -0.1237
vn -0.2632 0.0000 0.9647
vn -0.2436 0.9404 -0.2375
vn 0.2405 0.9284 0.2832
vn 0.1248 0.7859 -0.6057
vn -0.0395 0.9951 -0.0910
vn -0.0362 0.9993 0.0000
vn -0.1011 0.9877 -0.1191
vn -0.1378 0.7845 -0.6046
vn 0.0009 1.0000 -0.0000
vn 0.0000 0.9991 -0.0426
vn 0.1232 0.7011 -0.7023
vn -0.3427 0.5780 -0.7406
usemtl マテリアル
s 1
f 1/1/1 2/2/1 3/3/1
f 4/4/2 5/5/2 6/6/2
f 7/7/3 8/8/3 9/9/3
f 10/10/4 11/11/4 12/12/4
f 13/13/5 14/14/5 15/15/5
f 16/16/6 17/17/6 10/18/6
f 18/19/7 19/20/7 20/21/7
f 21/22/5 22/23/5 23/24/5
f 24/25/4 25/26/4 26/27/4
f 27/28/8 28/29/8 29/30/8
f 30/31/5 31/32/5 32/33/5
f 33/34/9 34/35/9 35/36/9
f 1/37/10 36/38/10 37/39/10
f 38/40/5 39/41/5 40/42/5
f 41/43/11 42/44/11 43/45/11
f 44/46/1 45/47/1 46/48/1
f 47/49/12 36/38/12 48/50/12
f 49/51/5 50/52/5 51/53/5
f 52/54/8 53/55/8 2/2/8
f 54/56/5 55/57/5 56/58/5
f 16/16/13 57/59/13 58/60/13
f 59/61/4 10/10/4 12/12/4
f 40/42/5 60/62/5 30/31/5
f 35/36/14 42/44/14 61/63/14
f 8/8/4 24/25/4 9/9/4
f 20/21/15 8/8/15 62/64/15
f 15/15/5 63/65/5 21/22/5
f 64/66/8 4/4/8 28/29/8
f 28/29/8 65/67/8 66/68/8
f 9/9/4 14/69/4 67/70/4
f 59/61/4 68/71/4 22/72/4
f 2/2/8 69/73/8 70/74/8
f 44/46/1 50/75/1 56/76/1
f 41/43/11 71/77/11 38/40/11
f 29/30/8 66/68/8 72/78/8
f 24/25/4 63/79/4 14/69/4
f 12/12/4 55/80/4 68/71/4
f 7/7/11 67/70/11 13/13/11
f 4/4/8 73/81/8 65/67/8
f 3/3/1 70/74/1 51/82/1
f 53/55/8 72/78/8 69/73/8
f 26/27/4 22/72/4 63/79/4
f 25/26/4 59/61/4 26/27/4
f 58/60/16 25/83/16 18/19/16
f 47/49/17 74/84/17 33/34/17
f 32/33/5 75/85/5 49/51/5
f 76/86/8 29/30/8 53/55/8
f 23/24/5 68/87/5 54/56/5
f 72/88/5 49/51/5 69/89/5
f 27/90/18 33/34/18 64/91/18
f 46/48/1 51/82/1 50/75/1
f 6/6/11 38/40/11 73/81/11
f 77/92/19 61/63/19 5/5/19
f 65/93/5 30/31/5 66/94/5
f 69/89/5 51/53/5 70/95/5
f 76/96/20 47/49/20 27/90/20
f 5/5/11 41/43/11 6/6/11
f 73/81/5 40/42/5 65/93/5
f 52/97/21 37/39/21 76/96/21
f 64/91/22 35/36/22 77/92/22
f 66/94/5 32/33/5 72/88/5
f 46/48/1 1/1/1 3/3/1
f 31/32/5 54/56/5 75/85/5
f 48/50/18 18/19/18 74/84/18
f 43/45/11 13/13/11 71/77/11
f 11/98/1 56/76/1 55/99/1
f 39/41/5 21/22/5 60/62/5
f 34/35/23 62/64/23 42/44/23
f 48/50/24 16/16/24 58/60/24
f 75/85/5 56/58/5 50/52/5
f 11/98/1 78/100/1 44/46/1
f 60/62/5 23/24/5 31/32/5
f 74/84/25 20/21/25 34/35/25
f 45/101/26 16/16/26 36/38/26
f 71/77/5 15/15/5 39/41/5
f 42/44/11 7/7/11 43/45/11
f 79/102/1 80/103/1 81/104/1
f 82/105/2 83/106/2 84/107/2
f 85/108/3 86/109/3 87/110/3
f 88/111/4 89/112/4 90/113/4
f 91/114/5 92/115/5 93/116/5
f 94/117/6 95/118/6 88/119/6
f 96/120/7 97/121/7 98/122/7
f 99/123/5 100/124/5 101/125/5
f 102/126/4 103/127/4 104/128/4
f 105/129/8 106/130/8 107/131/8
f 108/132/5 109/133/5 110/134/5
f 111/135/9 112/136/9 113/137/9
f 79/138/10 114/139/10 115/140/10
f 116/141/5 117/142/5 118/143/5
f 119/144/11 120/145/11 121/146/11
f 122/147/1 123/148/1 124/149/1
f 125/150/12 114/139/12 126/151/12
f 127/152/5 128/153/5 129/154/5
f 130/155/8 131/156/8 80/103/8
f 132/157/5 133/158/5 134/159/5
f 94/117/13 135/160/13 136/161/13
f 137/162/4 88/111/4 90/113/4
f 118/143/5 138/163/5 108/132/5
f 113/137/14 120/145/14 139/164/14
f 86/109/4 102/126/4 87/110/4
f 98/122/15 86/109/15 140/165/15
f 93/116/5 141/166/5 99/123/5
f 142/167/8 82/105/8 106/130/8
f 106/130/8 143/168/8 144/169/8
f 87/110/4 92/170/4 145/171/4
f 137/162/4 146/172/4 100/173/4
f 80/103/8 147/174/8 148/175/8
f 122/147/1 128/176/1 134/177/1
f 119/144/11 149/178/11 116/141/11
f 107/131/8 144/169/8 150/179/8
f 102/126/4 141/180/4 92/170/4
f 90/113/4 133/181/4 146/172/4
f 85/108/11 145/171/11 91/114/11
f 82/105/8 151/182/8 143/168/8
f 81/104/1 148/175/1 129/183/1
f 131/156/8 150/179/8 147/174/8
f 104/128/4 100/173/4 141/180/4
f 103/127/4 137/162/4 104/128/4
f 136/161/16 103/184/16 96/120/16
f 125/150/17 152/185/17 111/135/17
f 110/134/5 153/186/5 127/152/5
f 154/187/8 107/131/8 131/156/8
f 101/125/5 146/188/5 132/157/5
f 150/189/5 127/152/5 147/190/5
f 105/191/18 111/135/18 142/192/18
f 124/149/1 129/183/1 128/176/1
f 84/107/11 116/141/11 151/182/11
f 155/193/19 139/164/19 83/106/19
f 143/194/5 108/132/5 144/195/5
f 147/190/5 129/154/5 148/196/5
f 154/197/20 125/150/20 105/191/20
f 83/106/11 119/144/11 84/107/11
f 151/182/5 118/143/5 143/194/5
f 130/198/21 115/140/21 154/197/21
f 142/192/22 113/137/22 155/193/22
f 144/195/5 110/134/5 150/189/5
f 124/149/1 79/102/1 81/104/1
f 109/133/5 132/157/5 153/186/5
f 126/151/18 96/120/18 152/185/18
f 121/146/11 91/114/11 149/178/11
f 89/199/1 134/177/1 133/200/1
f 117/142/5 99/123/5 138/163/5
f 112/136/23 140/165/23 120/145/23
f 126/151/24 94/117/24 136/161/24
f 153/186/5 134/159/5 128/153/5
f 89/199/1 156/201/1 122/147/1
f 138/163/5 101/125/5 109/133/5
f 152/185/25 98/122/25 112/136/25
f 123/202/26 94/117/26 114/139/26
f 149/178/5 93/116/5 117/142/5
f 120/145/11 85/108/11 121/146/11
f 157/203/1 158/204/1 159/205/1
f 160/206/2 161/207/2 162/208/2
f 163/209/3 164/210/3 165/211/3
f 166/212/4 167/213/4 168/214/4
f 169/215/5 170/216/5 171/217/5
f 172/218/6 173/219/6 166/220/6
f 174/221/7 175/222/7 176/223/7
f 177/224/5 178/225/5 179/226/5
f 180/227/4 181/228/4 182/229/4
f 183/230/8 184/231/8 185/232/8
f 186/233/5 187/234/5 188/235/5
f 189/236/9 190/237/9 191/238/9
f 157/239/10 192/240/10 193/241/10
f 194/242/5 195/243/5 196/244/5
f 197/245/11 198/246/11 199/247/11
f 200/248/1 201/249/1 202/250/1
f 203/251/12 192/240/12 204/252/12
f 205/253/5 206/254/5 207/255/5
f 208/256/8 209/257/8 158/204/8
f 210/258/5 211/259/5 212/260/5
f 172/218/13 213/261/13 214/262/13
f 215/263/4 166/212/4 168/214/4
f 196/244/5 216/264/5 186/233/5
f 191/238/14 198/246/14 217/265/14
f 164/210/4 180/227/4 165/211/4
f 176/223/15 164/210/15 218/266/15
f 171/217/5 219/267/5 177/224/5
f 220/268/8 160/206/8 184/231/8
f 184/231/8 221/269/8 222/270/8
f 165/211/4 170/271/4 223/272/4
f 215/263/4 224/273/4 178/274/4
f 158/204/8 225/275/8 226/276/8
f 200/248/1 206/277/1 212/278/1
f 197/245/11 227/279/11 194/242/11
f 185/232/8 222/270/8 228/280/8
f 180/227/4 219/281/4 170/271/4
f 168/214/4 211/282/4 224/273/4
f 163/209/11 223/272/11 169/215/11
f 160/206/8 229/283/8 221/269/8
f 159/205/1 226/276/1 207/284/1
f 209/257/8 228/280/8 225/275/8
f 182/229/4 178/274/4 219/281/4
f 181/228/4 215/263/4 182/229/4
f 214/262/16 181/285/16 174/221/16
f 203/251/17 230/286/17 189/236/17
f 188/235/5 231/287/5 205/253/5
f 232/288/8 185/232/8 209/257/8
f 179/226/5 224/289/5 210/258/5
f 228/290/5 205/253/5 225/291/5
f 183/292/18 189/236/18 220/293/18
f 202/250/1 207/284/1 206/277/1
f 162/208/11 194/242/11 229/283/11
f 233/294/19 217/265/19 161/207/19
f 221/295/5 186/233/5 222/296/5
f 225/291/5 207/255/5 226/297/5
f 232/298/20 203/251/20 183/292/20
f 161/207/11 197/245/11 162/208/11
f 229/283/5 196/244/5 221/295/5
f 208/299/21 193/241/21 232/298/21
f 220/293/22 191/238/22 233/294/22
f 222/296/5 188/235/5 228/290/5
f 202/250/1 157/203/1 159/205/1
f 187/234/5 210/258/5 231/287/5
f 204/252/18 174/221/18 230/286/18
f 199/247/11 169/215/11 227/279/11
f 167/300/1 212/278/1 211/301/1
f 195/243/5 177/224/5 216/264/5
f 190/237/23 218/266/23 198/246/23
f 204/252/24 172/218/24 214/262/24
f 231/287/5 212/260/5 206/254/5
f 167/300/1 234/302/1 200/248/1
f 216/264/5 179/226/5 187/234/5
f 230/286/25 176/223/25 190/237/25
f 201/303/26 172/218/26 192/240/26
f 227/279/5 171/217/5 195/243/5
f 198/246/11 163/209/11 199/247/11
f 235/304/4 236/305/4 237/306/4
f 238/307/27 239/308/27 240/309/27
f 241/310/28 242/311/28 243/312/28
f 244/313/11 245/314/11 246/315/11
f 247/316/5 248/317/5 249/318/5
f 250/319/29 251/320/29 244/321/29
f 252/322/30 253/323/30 254/324/30
f 255/325/5 256/326/5 257/327/5
f 258/328/11 259/329/11 260/330/11
f 261/331/1 262/332/1 263/333/1
f 264/334/5 265/335/5 266/336/5
f 267/337/31 268/338/31 269/339/31
f 235/340/32 270/341/32 271/342/32
f 272/343/5 273/344/5 274/345/5
f 275/346/8 276/347/8 277/348/8
f 278/349/4 279/350/4 280/351/4
f 281/352/33 270/341/33 282/353/33
f 283/354/5 284/355/5 285/356/5
f 286/357/1 287/358/1 236/305/1
f 288/359/5 289/360/5 290/361/5
f 250/319/34 291/362/34 292/363/34
f 293/364/11 244/313/11 246/315/11
f 274/345/5 294/365/5 264/334/5
f 269/339/35 276/347/35 295/366/35
f 242/311/11 258/328/11 243/312/11
f 296/367/36 253/323/36 242/311/36
f 249/318/5 297/368/5 255/325/5
f 298/369/1 238/307/1 262/332/1
f 262/332/1 299/370/1 300/371/1
f 243/312/11 248/372/11 301/373/11
f 293/364/11 302/374/11 256/375/11
f 236/305/1 303/376/1 304/377/1
f 278/349/4 284/378/4 290/379/4
f 275/346/8 305/380/8 272/343/8
f 263/333/1 300/371/1 306/381/1
f 258/328/11 297/382/11 248/372/11
f 246/315/11 289/383/11 302/374/11
f 241/310/8 301/373/8 247/316/8
f 238/307/1 307/384/1 299/370/1
f 237/306/4 304/377/4 285/385/4
f 287/358/1 306/381/1 303/376/1
f 260/330/11 256/375/11 297/382/11
f 259/329/11 293/364/11 260/330/11
f 292/363/37 259/386/37 252/322/37
f 281/352/38 308/387/38 267/337/38
f 266/336/5 309/388/5 283/354/5
f 310/389/1 263/333/1 287/358/1
f 257/327/5 302/390/5 288/359/5
f 306/391/5 283/354/5 303/392/5
f 261/393/18 267/337/18 298/394/18
f 280/351/4 285/385/4 284/378/4
f 240/309/8 272/343/8 307/384/8
f 311/395/39 295/366/39 239/308/39
f 299/396/5 264/334/5 300/397/5
f 303/392/5 285/356/5 304/398/5
f 310/399/40 281/352/40 261/393/40
f 239/308/8 275/346/8 240/309/8
f 307/384/5 274/345/5 299/396/5
f 286/400/41 271/342/41 310/399/41
f 298/394/42 269/339/42 311/395/42
f 300/397/5 266/336/5 306/391/5
f 280/351/4 235/304/4 237/306/4
f 265/335/5 288/359/5 309/388/5
f 282/353/18 252/322/18 308/387/18
f 277/348/8 247/316/8 305/380/8
f 245/401/4 290/379/4 289/402/4
f 273/344/5 255/325/5 294/365/5
f 268/338/43 296/367/43 276/347/43
f 282/353/44 250/319/44 292/363/44
f 309/388/5 290/361/5 284/355/5
f 245/401/4 312/403/4 278/349/4
f 294/365/5 257/327/5 265/335/5
f 308/387/45 254/324/45 268/338/45
f 279/404/46 250/319/46 270/341/46
f 273/344/5 247/316/5 249/318/5
f 276/347/8 241/310/8 277/348/8
f 313/405/4 314/406/4 315/407/4
f 316/408/27 317/409/27 318/410/27
f 319/411/28 320/412/28 321/413/28
f 322/414/11 323/415/11 324/416/11
f 325/417/5 326/418/5 327/419/5
f 328/420/29 329/421/29 322/422/29
f 330/423/30 331/424/30 332/425/30
f 333/426/5 334/427/5 335/428/5
f 336/429/11 337/430/11 338/431/11
f 339/432/1 340/433/1 341/434/1
f 342/435/5 343/436/5 344/437/5
f 345/438/31 346/439/31 347/440/31
f 348/441/32 349/442/32 350/443/32
f 351/444/5 352/445/5 353/446/5
f 354/447/8 355/448/8 356/449/8
f 357/450/4 349/451/4 358/452/4
f 359/453/33 350/443/33 360/454/33
f 361/455/5 362/456/5 363/457/5
f 364/458/1 365/459/1 314/406/1
f 366/460/5 367/461/5 368/462/5
f 328/420/34 369/463/34 370/464/34
f 371/465/11 322/414/11 324/416/11
f 353/446/5 372/466/5 342/435/5
f 347/440/35 355/448/35 373/467/35
f 320/412/11 336/429/11 321/413/11
f 374/468/36 331/424/36 320/412/36
f 327/419/5 375/469/5 333/426/5
f 376/470/1 316/408/1 340/433/1
f 340/433/1 377/471/1 378/472/1
f 321/413/11 326/473/11 379/474/11
f 371/465/11 380/475/11 334/476/11
f 314/406/1 381/477/1 382/478/1
f 357/450/4 362/479/4 368/480/4
f 354/447/8 383/481/8 351/444/8
f 341/434/1 378/472/1 384/482/1
f 336/429/11 375/483/11 326/473/11
f 324/416/11 367/484/11 380/475/11
f 319/411/8 379/474/8 325/417/8
f 316/408/1 385/485/1 377/471/1
f 315/407/4 382/478/4 363/486/4
f 365/459/1 384/482/1 381/477/1
f 338/431/11 334/476/11 375/483/11
f 337/430/11 371/465/11 338/431/11
f 370/464/37 337/487/37 330/423/37
f 359/453/38 386/488/38 345/438/38
f 344/437/5 387/489/5 361/455/5
f 388/490/1 341/434/1 365/459/1
f 335/428/5 380/491/5 366/460/5
f 384/492/5 361/455/5 381/493/5
f 339/494/18 345/438/18 376/495/18
f 358/452/4 363/486/4 362/479/4
f 318/410/8 351/444/8 385/485/8
f 389/496/39 373/467/39 317/409/39
f 377/497/5 342/435/5 378/498/5
f 381/493/5 363/457/5 382/499/5
f 388/500/40 359/453/40 339/494/40
f 317/409/8 354/447/8 318/410/8
f 385/485/5 353/446/5 377/497/5
f 364/501/41 348/441/41 388/500/41
f 376/495/42 347/440/42 389/496/42
f 378/498/5 344/437/5 384/492/5
f 358/452/4 313/405/4 315/407/4
f 343/436/5 366/460/5 387/489/5
f 360/454/18 330/423/18 386/488/18
f 356/449/8 325/417/8 383/481/8
f 323/502/4 368/480/4 367/503/4
f 352/445/5 333/426/5 372/466/5
f 346/439/43 374/468/43 355/448/43
f 360/454/44 328/420/44 370/464/44
f 387/489/5 368/462/5 362/456/5
f 323/502/4 390/504/4 357/450/4
f 372/466/5 335/428/5 343/436/5
f 386/488/45 332/425/45 346/439/45
f 349/442/46 328/420/46 350/443/46
f 383/481/5 327/419/5 352/445/5
f 355/448/8 319/411/8 356/449/8
f 391/505/1 392/506/1 393/507/1
f 394/508/2 395/509/2 396/510/2
f 397/511/3 398/512/3 399/513/3
f 400/514/4 401/515/4 402/516/4
f 403/517/5 404/518/5 405/519/5
f 406/520/6 407/521/6 400/522/6
f 408/523/7 409/524/7 410/525/7
f 411/526/5 412/527/5 413/528/5
f 414/529/4 415/530/4 416/531/4
f 417/532/8 418/533/8 419/534/8
f 420/535/5 421/536/5 422/537/5
f 423/538/9 424/539/9 425/540/9
f 391/541/10 426/542/10 427/543/10
f 428/544/5 429/545/5 430/546/5
f 431/547/11 432/548/11 433/549/11
f 434/550/1 435/551/1 436/552/1
f 437/553/12 426/542/12 438/554/12
f 439/555/5 440/556/5 441/557/5
f 442/558/8 443/559/8 392/506/8
f 444/560/5 445/561/5 446/562/5
f 406/520/13 447/563/13 448/564/13
f 449/565/4 400/514/4 402/516/4
f 430/546/5 450/566/5 420/535/5
f 425/540/14 432/548/14 451/567/14
f 398/512/4 414/529/4 399/513/4
f 410/525/15 398/512/15 452/568/15
f 405/519/5 453/569/5 411/526/5
f 454/570/8 394/508/8 418/533/8
f 418/533/8 455/571/8 456/572/8
f 399/513/4 404/573/4 457/574/4
f 449/565/4 458/575/4 412/576/4
f 392/506/8 459/577/8 460/578/8
f 434/550/1 440/579/1 446/580/1
f 431/547/11 461/581/11 428/544/11
f 419/534/8 456/572/8 462/582/8
f 414/529/4 453/583/4 404/573/4
f 402/516/4 445/584/4 458/575/4
f 397/511/11 457/574/11 403/517/11
f 394/508/8 463/585/8 455/571/8
f 393/507/1 460/578/1 441/586/1
f 443/559/8 462/582/8 459/577/8
f 416/531/4 412/576/4 453/583/4
f 415/530/4 449/565/4 416/531/4
f 448/564/16 415/587/16 408/523/16
f 437/553/17 464/588/17 423/538/17
f 422/537/5 465/589/5 439/555/5
f 466/590/8 419/534/8 443/559/8
f 413/528/5 458/591/5 444/560/5
f 462/592/5 439/555/5 459/593/5
f 417/594/18 423/538/18 454/595/18
f 436/552/1 441/586/1 440/579/1
f 396/510/11 428/544/11 463/585/11
f 467/596/19 451/567/19 395/509/19
f 455/597/5 420/535/5 456/598/5
f 459/593/5 441/557/5 460/599/5
f 466/600/20 437/553/20 417/594/20
f 395/509/11 431/547/11 396/510/11
f 463/585/5 430/546/5 455/597/5
f 442/601/21 427/543/21 466/600/21
f 454/595/22 425/540/22 467/596/22
f 456/598/5 422/537/5 462/592/5
f 436/552/1 391/505/1 393/507/1
f 421/536/5 444/560/5 465/589/5
f 438/554/18 408/523/18 464/588/18
f 433/549/11 403/517/11 461/581/11
f 401/602/1 446/580/1 445/603/1
f 429/545/5 411/526/5 450/566/5
f 424/539/23 452/568/23 432/548/23
f 438/554/24 406/520/24 448/564/24
f 465/589/5 446/562/5 440/556/5
f 401/602/1 468/604/1 434/550/1
f 450/566/5 413/528/5 421/536/5
f 464/588/25 410/525/25 424/539/25
f 435/605/26 406/520/26 426/542/26
f 461/581/5 405/519/5 429/545/5
f 432/548/11 397/511/11 433/549/11
f 469/606/1 470/607/1 471/608/1
f 472/609/2 473/610/2 474/611/2
f 475/612/3 476/613/3 477/614/3
f 478/615/4 479/616/4 480/617/4
f 481/618/5 482/619/5 483/620/5
f 484/621/6 485/622/6 478/623/6
f 486/624/7 487/625/7 488/626/7
f 489/627/5 490/628/5 491/629/5
f 492/630/4 493/631/4 494/632/4
f 495/633/8 496/634/8 497/635/8
f 498/636/5 499/637/5 500/638/5
f 501/639/9 502/640/9 503/641/9
f 469/642/10 504/643/10 505/644/10
f 506/645/5 507/646/5 508/647/5
f 509/648/11 510/649/11 511/650/11
f 512/651/1 513/652/1 514/653/1
f 515/654/12 504/643/12 516/655/12
f 517/656/5 518/657/5 519/658/5
f 520/659/8 521/660/8 470/607/8
f 522/661/5 523/662/5 524/663/5
f 484/621/13 525/664/13 526/665/13
f 527/666/4 478/615/4 480/617/4
f 508/647/5 528/667/5 498/636/5
f 503/641/14 510/649/14 529/668/14
f 476/613/4 492/630/4 477/614/4
f 488/626/15 476/613/15 530/669/15
f 483/620/5 531/670/5 489/627/5
f 532/671/8 472/609/8 496/634/8
f 496/634/8 533/672/8 534/673/8
f 477/614/4 482/674/4 535/675/4
f 527/666/4 536/676/4 490/677/4
f 470/607/8 537/678/8 538/679/8
f 512/651/1 518/680/1 524/681/1
f 509/648/11 539/682/11 506/645/11
f 497/635/8 534/673/8 540/683/8
f 492/630/4 531/684/4 482/674/4
f 480/617/4 523/685/4 536/676/4
f 475/612/11 535/675/11 481/618/11
f 472/609/8 541/686/8 533/672/8
f 471/608/1 538/679/1 519/687/1
f 521/660/8 540/683/8 537/678/8
f 494/632/4 490/677/4 531/684/4
f 493/631/4 527/666/4 494/632/4
f 526/665/16 493/688/16 486/624/16
f 515/654/17 542/689/17 501/639/17
f 500/638/5 543/690/5 517/656/5
f 544/691/8 497/635/8 521/660/8
f 491/629/5 536/692/5 522/661/5
f 540/693/5 517/656/5 537/694/5
f 495/695/18 501/639/18 532/696/18
f 514/653/1 519/687/1 518/680/1
f 474/611/11 506/645/11 541/686/11
f 545/697/19 529/668/19 473/610/19
f 533/698/5 498/636/5 534/699/5
f 537/694/5 519/658/5 538/700/5
f 544/701/20 515/654/20 495/695/20
f 473/610/11 509/648/11 474/611/11
f 541/686/5 508/647/5 533/698/5
f 520/702/21 505/644/21 544/701/21
f 532/696/22 503/641/22 545/697/22
f 534/699/5 500/638/5 540/693/5
f 514/653/1 469/606/1 471/608/1
f 499/637/5 522/661/5 543/690/5
f 516/655/18 486/624/18 542/689/18
f 511/650/11 481/618/11 539/682/11
f 479/703/1 524/681/1 523/704/1
f 507/646/5 489/627/5 528/667/5
f 502/640/23 530/669/23 510/649/23
f 516/655/24 484/621/24 526/665/24
f 543/690/5 524/663/5 518/657/5
f 479/703/1 546/705/1 512/651/1
f 528/667/5 491/629/5 499/637/5
f 542/689/25 488/626/25 502/640/25
f 513/706/26 484/621/26 504/643/26
f 539/682/5 483/620/5 507/646/5
f 510/649/11 475/612/11 511/650/11
f 547/707/1 548/708/1 549/709/1
f 550/710/2 551/711/2 552/712/2
f 553/713/3 554/714/3 555/715/3
f 556/716/4 557/717/4 558/718/4
f 559/719/5 560/720/5 561/721/5
f 562/722/6 563/723/6 556/724/6
f 564/725/7 565/726/7 566/727/7
f 567/728/5 568/729/5 569/730/5
f 570/731/4 571/732/4 572/733/4
f 573/734/8 574/735/8 575/736/8
f 576/737/5 577/738/5 578/739/5
f 579/740/9 580/741/9 581/742/9
f 547/743/10 582/744/10 583/745/10
f 584/746/5 585/747/5 586/748/5
f 587/749/11 588/750/11 589/751/11
f 590/752/1 591/753/1 592/754/1
f 593/755/12 582/744/12 594/756/12
f 595/757/5 596/758/5 597/759/5
f 598/760/8 599/761/8 548/708/8
f 600/762/5 601/763/5 602/764/5
f 562/722/13 603/765/13 604/766/13
f 605/767/4 556/716/4 558/718/4
f 586/748/5 606/768/5 576/737/5
f 581/742/14 588/750/14 607/769/14
f 554/714/4 570/731/4 555/715/4
f 566/727/15 554/714/15 608/770/15
f 561/721/5 609/771/5 567/728/5
f 610/772/8 550/710/8 574/735/8
f 574/735/8 611/773/8 612/774/8
f 555/715/4 560/775/4 613/776/4
f 605/767/4 614/777/4 568/778/4
f 548/708/8 615/779/8 616/780/8
f 590/752/1 596/781/1 602/782/1
f 587/749/11 617/783/11 584/746/11
f 575/736/8 612/774/8 618/784/8
f 570/731/4 609/785/4 560/775/4
f 558/718/4 601/786/4 614/777/4
f 553/713/11 613/776/11 559/719/11
f 550/710/8 619/787/8 611/773/8
f 549/709/1 616/780/1 597/788/1
f 599/761/8 618/784/8 615/779/8
f 572/733/4 568/778/4 609/785/4
f 571/732/4 605/767/4 572/733/4
f 604/766/16 571/789/16 564/725/16
f 593/755/17 620/790/17 579/740/17
f 578/739/5 621/791/5 595/757/5
f 622/792/8 575/736/8 599/761/8
f 569/730/5 614/793/5 600/762/5
f 618/794/5 595/757/5 615/795/5
f 573/796/18 579/740/18 610/797/18
f 592/754/1 597/788/1 596/781/1
f 552/712/11 584/746/11 619/787/11
f 623/798/19 607/769/19 551/711/19
f 611/799/5 576/737/5 612/800/5
f 615/795/5 597/759/5 616/801/5
f 622/802/20 593/755/20 573/796/20
f 551/711/11 587/749/11 552/712/11
f 619/787/5 586/748/5 611/799/5
f 598/803/21 583/745/21 622/802/21
f 610/797/22 581/742/22 623/798/22
f 612/800/5 578/739/5 618/794/5
f 592/754/1 547/707/1 549/709/1
f 577/738/5 600/762/5 621/791/5
f 594/756/18 564/725/18 620/790/18
f 589/751/11 559/719/11 617/783/11
f 557/804/1 602/782/1 601/805/1
f 585/747/5 567/728/5 606/768/5
f 580/741/23 608/770/23 588/750/23
f 594/756/24 562/722/24 604/766/24
f 621/791/5 602/764/5 596/758/5
f 557/804/1 624/806/1 590/752/1
f 606/768/5 569/730/5 577/738/5
f 620/790/25 566/727/25 580/741/25
f 591/807/26 562/722/26 582/744/26
f 617/783/5 561/721/5 585/747/5
f 588/750/11 553/713/11 589/751/11
f 625/808/1 626/809/1 627/810/1
f 628/811/2 629/812/2 630/813/2
f 631/814/3 632/815/3 633/816/3
f 634/817/4 635/818/4 636/819/4
f 637/820/5 638/821/5 639/822/5
f 640/823/6 641/824/6 634/825/6
f 642/826/7 643/827/7 644/828/7
f 645/829/5 646/830/5 647/831/5
f 648/832/4 649/833/4 650/834/4
f 651/835/8 652/836/8 653/837/8
f 654/838/5 655/839/5 656/840/5
f 657/841/9 658/842/9 659/843/9
f 625/844/10 660/845/10 661/846/10
f 662/847/5 663/848/5 664/849/5
f 665/850/11 666/851/11 667/852/11
f 668/853/1 669/854/1 670/855/1
f 671/856/12 660/845/12 672/857/12
f 673/858/5 674/859/5 675/860/5
f 676/861/8 677/862/8 626/809/8
f 678/863/5 679/864/5 680/865/5
f 640/823/13 681/866/13 682/867/13
f 683/868/4 634/817/4 636/819/4
f 664/849/5 684/869/5 654/838/5
f 659/843/14 666/851/14 685/870/14
f 632/815/4 648/832/4 633/816/4
f 644/828/15 632/815/15 686/871/15
f 639/822/5 687/872/5 645/829/5
f 688/873/8 628/811/8 652/836/8
f 652/836/8 689/874/8 690/875/8
f 633/816/4 638/876/4 691/877/4
f 683/868/4 692/878/4 646/879/4
f 626/809/8 693/880/8 694/881/8
f 668/853/1 674/882/1 680/883/1
f 665/850/11 695/884/11 662/847/11
f 653/837/8 690/875/8 696/885/8
f 648/832/4 687/886/4 638/876/4
f 636/819/4 679/887/4 692/878/4
f 631/814/11 691/877/11 637/820/11
f 628/811/8 697/888/8 689/874/8
f 627/810/1 694/881/1 675/889/1
f 677/862/8 696/885/8 693/880/8
f 650/834/4 646/879/4 687/886/4
f 649/833/4 683/868/4 650/834/4
f 682/867/16 649/890/16 642/826/16
f 671/856/17 698/891/17 657/841/17
f 656/840/5 699/892/5 673/858/5
f 700/893/8 653/837/8 677/862/8
f 647/831/5 692/894/5 678/863/5
f 696/895/5 673/858/5 693/896/5
f 651/897/18 657/841/18 688/898/18
f 670/855/1 675/889/1 674/882/1
f 630/813/11 662/847/11 697/888/11
f 701/899/19 685/870/19 629/812/19
f 689/900/5 654/838/5 690/901/5
f 693/896/5 675/860/5 694/902/5
f 700/903/20 671/856/20 651/897/20
f 629/812/11 665/850/11 630/813/11
f 697/888/5 664/849/5 689/900/5
f 676/904/21 661/846/21 700/903/21
f 688/898/22 659/843/22 701/899/22
f 690/901/5 656/840/5 696/895/5
f 670/855/1 625/808/1 627/810/1
f 655/839/5 678/863/5 699/892/5
f 672/857/18 642/826/18 698/891/18
f 667/852/11 637/820/11 695/884/11
f 635/905/1 680/883/1 679/906/1
f 663/848/5 645/829/5 684/869/5
f 658/842/23 686/871/23 666/851/23
f 672/857/24 640/823/24 682/867/24
f 699/892/5 680/865/5 674/859/5
f 635/905/1 702/907/1 668/853/1
f 684/869/5 647/831/5 655/839/5
f 698/891/25 644/828/25 658/842/25
f 669/908/26 640/823/26 660/845/26
f 695/884/5 639/822/5 663/848/5
f 666/851/11 631/814/11 667/852/11
f 703/909/4 704/910/4 705/911/4
f 706/912/27 707/913/27 708/914/27
f 709/915/28 710/916/28 711/917/28
f 712/918/11 713/919/11 714/920/11
f 715/921/5 716/922/5 717/923/5
f 718/924/29 719/925/29 712/926/29
f 720/927/30 721/928/30 722/929/30
f 723/930/5 724/931/5 725/932/5
f 726/933/11 727/934/11 728/935/11
f 729/936/1 730/937/1 731/938/1
f 732/939/5 733/940/5 734/941/5
f 735/942/31 736/943/31 737/944/31
f 738/945/32 739/946/32 740/947/32
f 741/948/5 742/949/5 743/950/5
f 744/951/8 745/952/8 746/953/8
f 747/954/4 739/955/4 748/956/4
f 749/957/33 740/947/33 750/958/33
f 751/959/5 752/960/5 753/961/5
f 754/962/1 755/963/1 704/910/1
f 756/964/5 757/965/5 758/966/5
f 718/924/34 759/967/34 760/968/34
f 761/969/11 712/918/11 714/920/11
f 743/950/5 762/970/5 732/939/5
f 737/944/35 745/952/35 763/971/35
f 710/916/11 726/933/11 711/917/11
f 764/972/36 721/928/36 710/916/36
f 717/923/5 765/973/5 723/930/5
f 766/974/1 706/912/1 730/937/1
f 730/937/1 767/975/1 768/976/1
f 711/917/11 716/977/11 769/978/11
f 761/969/11 757/979/11 724/980/11
f 704/910/1 770/981/1 771/982/1
f 747/954/4 752/983/4 756/984/4
f 744/951/8 772/985/8 741/948/8
f 731/938/1 768/976/1 773/986/1
f 726/933/11 765/987/11 716/977/11
f 714/920/11 758/988/11 757/979/11
f 709/915/8 769/978/8 715/921/8
f 706/912/1 774/989/1 767/975/1
f 705/911/4 771/982/4 753/990/4
f 755/963/1 773/986/1 770/981/1
f 728/935/11 724/980/11 765/987/11
f 727/934/11 761/969/11 728/935/11
f 760/968/37 727/991/37 720/927/37
f 749/957/38 775/992/38 735/942/38
f 734/941/5 776/993/5 751/959/5
f 777/994/1 731/938/1 755/963/1
f 725/932/5 757/965/5 778/995/5
f 773/996/5 751/959/5 770/997/5
f 729/998/18 735/942/18 766/999/18
f 748/956/4 753/990/4 752/983/4
f 708/914/8 741/948/8 774/989/8
f 779/1000/39 763/971/39 707/913/39
f 767/1001/5 732/939/5 768/1002/5
f 770/997/5 753/961/5 771/1003/5
f 777/1004/40 749/957/40 729/998/40
f 707/913/8 744/951/8 708/914/8
f 774/989/5 743/950/5 767/1001/5
f 754/1005/41 738/945/41 777/1004/41
f 766/999/42 737/944/42 779/1000/42
f 768/1002/5 734/941/5 773/996/5
f 748/956/4 703/909/4 705/911/4
f 733/940/5 778/995/5 776/993/5
f 750/958/18 720/927/18 775/992/18
f 746/953/8 715/921/8 772/985/8
f 713/1006/4 756/984/4 758/1007/4
f 742/949/5 723/930/5 762/970/5
f 736/943/43 764/972/43 745/952/43
f 750/958/44 718/924/44 760/968/44
f 752/960/5 778/995/5 756/964/5
f 713/1006/4 780/1008/4 747/954/4
f 762/970/5 725/932/5 733/940/5
f 775/992/45 722/929/45 736/943/45
f 739/946/46 718/924/46 740/947/46
f 772/985/5 717/923/5 742/949/5
f 745/952/8 709/915/8 746/953/8
f 1/1/47 52/54/47 2/2/47
f 4/4/48 77/1009/48 5/5/48
f 7/7/49 62/64/49 8/8/49
f 10/10/4 17/1010/4 11/11/4
f 13/13/5 67/70/5 14/14/5
f 16/16/18 78/1011/18 17/17/18
f 18/19/50 25/83/50 19/20/50
f 21/22/5 63/65/5 22/23/5
f 24/25/4 19/1012/4 25/26/4
f 27/28/8 64/66/8 28/29/8
f 30/31/5 60/62/5 31/32/5
f 33/34/51 74/84/51 34/35/51
f 1/37/10 45/101/10 36/38/10
f 38/40/5 71/77/5 39/41/5
f 41/43/11 61/63/11 42/44/11
f 44/46/1 78/100/1 45/47/1
f 47/49/52 37/39/52 36/38/52
f 49/51/5 75/85/5 50/52/5
f 52/54/8 76/86/8 53/55/8
f 54/56/5 68/87/5 55/57/5
f 16/16/53 10/18/53 57/59/53
f 59/61/4 57/1013/4 10/10/4
f 40/42/5 39/41/5 60/62/5
f 35/36/54 34/35/54 42/44/54
f 8/8/4 19/1012/4 24/25/4
f 20/21/55 19/20/55 8/8/55
f 15/15/5 14/14/5 63/65/5
f 64/66/8 77/1009/8 4/4/8
f 28/29/8 4/4/8 65/67/8
f 9/9/4 24/25/4 14/69/4
f 59/61/4 12/12/4 68/71/4
f 2/2/8 53/55/8 69/73/8
f 44/46/1 46/48/1 50/75/1
f 41/43/11 43/45/11 71/77/11
f 29/30/8 28/29/8 66/68/8
f 24/25/4 26/27/4 63/79/4
f 12/12/4 11/11/4 55/80/4
f 7/7/11 9/9/11 67/70/11
f 4/4/8 6/6/8 73/81/8
f 3/3/1 2/2/1 70/74/1
f 53/55/8 29/30/8 72/78/8
f 26/27/4 59/61/4 22/72/4
f 25/26/4 57/1013/4 59/61/4
f 58/60/16 57/59/16 25/83/16
f 47/49/17 48/50/17 74/84/17
f 32/33/5 31/32/5 75/85/5
f 76/86/8 27/28/8 29/30/8
f 23/24/5 22/23/5 68/87/5
f 72/88/5 32/33/5 49/51/5
f 27/90/18 47/49/18 33/34/18
f 46/48/1 3/3/1 51/82/1
f 6/6/11 41/43/11 38/40/11
f 77/92/56 35/36/56 61/63/56
f 65/93/5 40/42/5 30/31/5
f 69/89/5 49/51/5 51/53/5
f 76/96/57 37/39/57 47/49/57
f 5/5/11 61/63/11 41/43/11
f 73/81/5 38/40/5 40/42/5
f 52/97/58 1/37/58 37/39/58
f 64/91/59 33/34/59 35/36/59
f 66/94/5 30/31/5 32/33/5
f 46/48/1 45/47/1 1/1/1
f 31/32/5 23/24/5 54/56/5
f 48/50/18 58/60/18 18/19/18
f 43/45/11 7/7/11 13/13/11
f 11/98/1 44/46/1 56/76/1
f 39/41/5 15/15/5 21/22/5
f 34/35/23 20/21/23 62/64/23
f 48/50/60 36/38/60 16/16/60
f 75/85/5 54/56/5 56/58/5
f 11/98/61 17/1014/61 78/100/61
f 60/62/5 21/22/5 23/24/5
f 74/84/7 18/19/7 20/21/7
f 45/101/26 78/1011/26 16/16/26
f 71/77/5 13/13/5 15/15/5
f 42/44/11 62/64/11 7/7/11
f 79/102/47 130/155/47 80/103/47
f 82/105/48 155/1015/48 83/106/48
f 85/108/49 140/165/49 86/109/49
f 88/111/4 95/1016/4 89/112/4
f 91/114/5 145/171/5 92/115/5
f 94/117/18 156/1017/18 95/118/18
f 96/120/50 103/184/50 97/121/50
f 99/123/5 141/166/5 100/124/5
f 102/126/4 97/1018/4 103/127/4
f 105/129/8 142/167/8 106/130/8
f 108/132/5 138/163/5 109/133/5
f 111/135/51 152/185/51 112/136/51
f 79/138/10 123/202/10 114/139/10
f 116/141/5 149/178/5 117/142/5
f 119/144/11 139/164/11 120/145/11
f 122/147/1 156/201/1 123/148/1
f 125/150/52 115/140/52 114/139/52
f 127/152/5 153/186/5 128/153/5
f 130/155/8 154/187/8 131/156/8
f 132/157/5 146/188/5 133/158/5
f 94/117/53 88/119/53 135/160/53
f 137/162/4 135/1019/4 88/111/4
f 118/143/5 117/142/5 138/163/5
f 113/137/54 112/136/54 120/145/54
f 86/109/4 97/1018/4 102/126/4
f 98/122/55 97/121/55 86/109/55
f 93/116/5 92/115/5 141/166/5
f 142/167/8 155/1015/8 82/105/8
f 106/130/8 82/105/8 143/168/8
f 87/110/4 102/126/4 92/170/4
f 137/162/4 90/113/4 146/172/4
f 80/103/8 131/156/8 147/174/8
f 122/147/1 124/149/1 128/176/1
f 119/144/11 121/146/11 149/178/11
f 107/131/8 106/130/8 144/169/8
f 102/126/4 104/128/4 141/180/4
f 90/113/4 89/112/4 133/181/4
f 85/108/11 87/110/11 145/171/11
f 82/105/8 84/107/8 151/182/8
f 81/104/1 80/103/1 148/175/1
f 131/156/8 107/131/8 150/179/8
f 104/128/4 137/162/4 100/173/4
f 103/127/4 135/1019/4 137/162/4
f 136/161/16 135/160/16 103/184/16
f 125/150/17 126/151/17 152/185/17
f 110/134/5 109/133/5 153/186/5
f 154/187/8 105/129/8 107/131/8
f 101/125/5 100/124/5 146/188/5
f 150/189/5 110/134/5 127/152/5
f 105/191/18 125/150/18 111/135/18
f 124/149/1 81/104/1 129/183/1
f 84/107/11 119/144/11 116/141/11
f 155/193/56 113/137/56 139/164/56
f 143/194/5 118/143/5 108/132/5
f 147/190/5 127/152/5 129/154/5
f 154/197/57 115/140/57 125/150/57
f 83/106/11 139/164/11 119/144/11
f 151/182/5 116/141/5 118/143/5
f 130/198/58 79/138/58 115/140/58
f 142/192/59 111/135/59 113/137/59
f 144/195/5 108/132/5 110/134/5
f 124/149/1 123/148/1 79/102/1
f 109/133/5 101/125/5 132/157/5
f 126/151/18 136/161/18 96/120/18
f 121/146/11 85/108/11 91/114/11
f 89/199/1 122/147/1 134/177/1
f 117/142/5 93/116/5 99/123/5
f 112/136/23 98/122/23 140/165/23
f 126/151/60 114/139/60 94/117/60
f 153/186/5 132/157/5 134/159/5
f 89/199/61 95/1020/61 156/201/61
f 138/163/5 99/123/5 101/125/5
f 152/185/7 96/120/7 98/122/7
f 123/202/26 156/1017/26 94/117/26
f 149/178/5 91/114/5 93/116/5
f 120/145/11 140/165/11 85/108/11
f 157/203/47 208/256/47 158/204/47
f 160/206/48 233/1021/48 161/207/48
f 163/209/49 218/266/49 164/210/49
f 166/212/4 173/1022/4 167/213/4
f 169/215/5 223/272/5 170/216/5
f 172/218/18 234/1023/18 173/219/18
f 174/221/50 181/285/50 175/222/50
f 177/224/5 219/267/5 178/225/5
f 180/227/4 175/1024/4 181/228/4
f 183/230/8 220/268/8 184/231/8
f 186/233/5 216/264/5 187/234/5
f 189/236/51 230/286/51 190/237/51
f 157/239/10 201/303/10 192/240/10
f 194/242/5 227/279/5 195/243/5
f 197/245/11 217/265/11 198/246/11
f 200/248/1 234/302/1 201/249/1
f 203/251/52 193/241/52 192/240/52
f 205/253/5 231/287/5 206/254/5
f 208/256/8 232/288/8 209/257/8
f 210/258/5 224/289/5 211/259/5
f 172/218/53 166/220/53 213/261/53
f 215/263/4 213/1025/4 166/212/4
f 196/244/5 195/243/5 216/264/5
f 191/238/54 190/237/54 198/246/54
f 164/210/4 175/1024/4 180/227/4
f 176/223/55 175/222/55 164/210/55
f 171/217/5 170/216/5 219/267/5
f 220/268/8 233/1021/8 160/206/8
f 184/231/8 160/206/8 221/269/8
f 165/211/4 180/227/4 170/271/4
f 215/263/4 168/214/4 224/273/4
f 158/204/8 209/257/8 225/275/8
f 200/248/1 202/250/1 206/277/1
f 197/245/11 199/247/11 227/279/11
f 185/232/8 184/231/8 222/270/8
f 180/227/4 182/229/4 219/281/4
f 168/214/4 167/213/4 211/282/4
f 163/209/11 165/211/11 223/272/11
f 160/206/8 162/208/8 229/283/8
f 159/205/1 158/204/1 226/276/1
f 209/257/8 185/232/8 228/280/8
f 182/229/4 215/263/4 178/274/4
f 181/228/4 213/1025/4 215/263/4
f 214/262/16 213/261/16 181/285/16
f 203/251/17 204/252/17 230/286/17
f 188/235/5 187/234/5 231/287/5
f 232/288/8 183/230/8 185/232/8
f 179/226/5 178/225/5 224/289/5
f 228/290/5 188/235/5 205/253/5
f 183/292/18 203/251/18 189/236/18
f 202/250/1 159/205/1 207/284/1
f 162/208/11 197/245/11 194/242/11
f 233/294/56 191/238/56 217/265/56
f 221/295/5 196/244/5 186/233/5
f 225/291/5 205/253/5 207/255/5
f 232/298/57 193/241/57 203/251/57
f 161/207/11 217/265/11 197/245/11
f 229/283/5 194/242/5 196/244/5
f 208/299/58 157/239/58 193/241/58
f 220/293/59 189/236/59 191/238/59
f 222/296/5 186/233/5 188/235/5
f 202/250/1 201/249/1 157/203/1
f 187/234/5 179/226/5 210/258/5
f 204/252/18 214/262/18 174/221/18
f 199/247/11 163/209/11 169/215/11
f 167/300/1 200/248/1 212/278/1
f 195/243/5 171/217/5 177/224/5
f 190/237/23 176/223/23 218/266/23
f 204/252/60 192/240/60 172/218/60
f 231/287/5 210/258/5 212/260/5
f 167/300/61 173/1026/61 234/302/61
f 216/264/5 177/224/5 179/226/5
f 230/286/7 174/221/7 176/223/7
f 201/303/26 234/1023/26 172/218/26
f 227/279/5 169/215/5 171/217/5
f 198/246/11 218/266/11 163/209/11
f 235/304/62 286/357/62 236/305/62
f 238/307/63 311/1027/63 239/308/63
f 241/310/64 296/367/64 242/311/64
f 244/313/11 251/1028/11 245/314/11
f 247/316/5 301/373/5 248/317/5
f 250/319/18 312/1029/18 251/320/18
f 252/322/65 259/386/65 253/323/65
f 255/325/5 297/368/5 256/326/5
f 258/328/11 253/1030/11 259/329/11
f 261/331/1 298/369/1 262/332/1
f 264/334/5 294/365/5 265/335/5
f 267/337/66 308/387/66 268/338/66
f 235/340/32 279/404/32 270/341/32
f 272/343/5 305/380/5 273/344/5
f 275/346/8 295/366/8 276/347/8
f 278/349/4 312/403/4 279/350/4
f 281/352/67 271/342/67 270/341/67
f 283/354/5 309/388/5 284/355/5
f 286/357/1 310/389/1 287/358/1
f 288/359/5 302/390/5 289/360/5
f 250/319/68 244/321/68 291/362/68
f 293/364/11 291/1031/11 244/313/11
f 274/345/5 273/344/5 294/365/5
f 269/339/69 268/338/69 276/347/69
f 242/311/11 253/1030/11 258/328/11
f 296/367/18 254/324/18 253/323/18
f 249/318/5 248/317/5 297/368/5
f 298/369/1 311/1027/1 238/307/1
f 262/332/1 238/307/1 299/370/1
f 243/312/11 258/328/11 248/372/11
f 293/364/11 246/315/11 302/374/11
f 236/305/1 287/358/1 303/376/1
f 278/349/4 280/351/4 284/378/4
f 275/346/8 277/348/8 305/380/8
f 263/333/1 262/332/1 300/371/1
f 258/328/11 260/330/11 297/382/11
f 246/315/11 245/314/11 289/383/11
f 241/310/8 243/312/8 301/373/8
f 238/307/1 240/309/1 307/384/1
f 237/306/4 236/305/4 304/377/4
f 287/358/1 263/333/1 306/381/1
f 260/330/11 293/364/11 256/375/11
f 259/329/11 291/1031/11 293/364/11
f 292/363/37 291/362/37 259/386/37
f 281/352/38 282/353/38 308/387/38
f 266/336/5 265/335/5 309/388/5
f 310/389/1 261/331/1 263/333/1
f 257/327/5 256/326/5 302/390/5
f 306/391/5 266/336/5 283/354/5
f 261/393/18 281/352/18 267/337/18
f 280/351/4 237/306/4 285/385/4
f 240/309/8 275/346/8 272/343/8
f 311/395/70 269/339/70 295/366/70
f 299/396/5 274/345/5 264/334/5
f 303/392/5 283/354/5 285/356/5
f 310/399/71 271/342/71 281/352/71
f 239/308/8 295/366/8 275/346/8
f 307/384/5 272/343/5 274/345/5
f 286/400/72 235/340/72 271/342/72
f 298/394/73 267/337/73 269/339/73
f 300/397/5 264/334/5 266/336/5
f 280/351/4 279/350/4 235/304/4
f 265/335/5 257/327/5 288/359/5
f 282/353/18 292/363/18 252/322/18
f 277/348/8 241/310/8 247/316/8
f 245/401/4 278/349/4 290/379/4
f 273/344/5 249/318/5 255/325/5
f 268/338/43 254/324/43 296/367/43
f 282/353/74 270/341/74 250/319/74
f 309/388/5 288/359/5 290/361/5
f 245/401/75 251/1032/75 312/403/75
f 294/365/5 255/325/5 257/327/5
f 308/387/30 252/322/30 254/324/30
f 279/404/46 312/1029/46 250/319/46
f 273/344/5 305/380/5 247/316/5
f 276/347/8 296/367/8 241/310/8
f 313/405/62 364/458/62 314/406/62
f 316/408/63 389/1033/63 317/409/63
f 319/411/64 374/468/64 320/412/64
f 322/414/11 329/1034/11 323/415/11
f 325/417/5 379/474/5 326/418/5
f 328/420/18 390/1035/18 329/421/18
f 330/423/65 337/487/65 331/424/65
f 333/426/5 375/469/5 334/427/5
f 336/429/11 331/1036/11 337/430/11
f 339/432/1 376/470/1 340/433/1
f 342/435/5 372/466/5 343/436/5
f 345/438/66 386/488/66 346/439/66
f 348/441/32 313/1037/32 349/442/32
f 351/444/5 383/481/5 352/445/5
f 354/447/8 373/467/8 355/448/8
f 357/450/4 390/504/4 349/451/4
f 359/453/67 348/441/67 350/443/67
f 361/455/5 387/489/5 362/456/5
f 364/458/1 388/490/1 365/459/1
f 366/460/5 380/491/5 367/461/5
f 328/420/68 322/422/68 369/463/68
f 371/465/11 369/1038/11 322/414/11
f 353/446/5 352/445/5 372/466/5
f 347/440/69 346/439/69 355/448/69
f 320/412/11 331/1036/11 336/429/11
f 374/468/18 332/425/18 331/424/18
f 327/419/5 326/418/5 375/469/5
f 376/470/1 389/1033/1 316/408/1
f 340/433/1 316/408/1 377/471/1
f 321/413/11 336/429/11 326/473/11
f 371/465/11 324/416/11 380/475/11
f 314/406/1 365/459/1 381/477/1
f 357/450/4 358/452/4 362/479/4
f 354/447/8 356/449/8 383/481/8
f 341/434/1 340/433/1 378/472/1
f 336/429/11 338/431/11 375/483/11
f 324/416/11 323/415/11 367/484/11
f 319/411/8 321/413/8 379/474/8
f 316/408/1 318/410/1 385/485/1
f 315/407/4 314/406/4 382/478/4
f 365/459/1 341/434/1 384/482/1
f 338/431/11 371/465/11 334/476/11
f 337/430/11 369/1038/11 371/465/11
f 370/464/37 369/463/37 337/487/37
f 359/453/38 360/454/38 386/488/38
f 344/437/5 343/436/5 387/489/5
f 388/490/1 339/432/1 341/434/1
f 335/428/5 334/427/5 380/491/5
f 384/492/5 344/437/5 361/455/5
f 339/494/18 359/453/18 345/438/18
f 358/452/4 315/407/4 363/486/4
f 318/410/8 354/447/8 351/444/8
f 389/496/70 347/440/70 373/467/70
f 377/497/5 353/446/5 342/435/5
f 381/493/5 361/455/5 363/457/5
f 388/500/71 348/441/71 359/453/71
f 317/409/8 373/467/8 354/447/8
f 385/485/5 351/444/5 353/446/5
f 364/501/72 313/1037/72 348/441/72
f 376/495/73 345/438/73 347/440/73
f 378/498/5 342/435/5 344/437/5
f 358/452/4 349/451/4 313/405/4
f 343/436/5 335/428/5 366/460/5
f 360/454/18 370/464/18 330/423/18
f 356/449/8 319/411/8 325/417/8
f 323/502/4 357/450/4 368/480/4
f 352/445/5 327/419/5 333/426/5
f 346/439/43 332/425/43 374/468/43
f 360/454/74 350/443/74 328/420/74
f 387/489/5 366/460/5 368/462/5
f 323/502/75 329/1039/75 390/504/75
f 372/466/5 333/426/5 335/428/5
f 386/488/30 330/423/30 332/425/30
f 349/442/46 390/1035/46 328/420/46
f 383/481/5 325/417/5 327/419/5
f 355/448/8 374/468/8 319/411/8
f 391/505/47 442/558/47 392/506/47
f 394/508/48 467/1040/48 395/509/48
f 397/511/49 452/568/49 398/512/49
f 400/514/4 407/1041/4 401/515/4
f 403/517/5 457/574/5 404/518/5
f 406/520/18 468/1042/18 407/521/18
f 408/523/50 415/587/50 409/524/50
f 411/526/5 453/569/5 412/527/5
f 414/529/4 409/1043/4 415/530/4
f 417/532/8 454/570/8 418/533/8
f 420/535/5 450/566/5 421/536/5
f 423/538/51 464/588/51 424/539/51
f 391/541/10 435/605/10 426/542/10
f 428/544/5 461/581/5 429/545/5
f 431/547/11 451/567/11 432/548/11
f 434/550/1 468/604/1 435/551/1
f 437/553/52 427/543/52 426/542/52
f 439/555/5 465/589/5 440/556/5
f 442/558/8 466/590/8 443/559/8
f 444/560/5 458/591/5 445/561/5
f 406/520/53 400/522/53 447/563/53
f 449/565/4 447/1044/4 400/514/4
f 430/546/5 429/545/5 450/566/5
f 425/540/54 424/539/54 432/548/54
f 398/512/4 409/1043/4 414/529/4
f 410/525/55 409/524/55 398/512/55
f 405/519/5 404/518/5 453/569/5
f 454/570/8 467/1040/8 394/508/8
f 418/533/8 394/508/8 455/571/8
f 399/513/4 414/529/4 404/573/4
f 449/565/4 402/516/4 458/575/4
f 392/506/8 443/559/8 459/577/8
f 434/550/1 436/552/1 440/579/1
f 431/547/11 433/549/11 461/581/11
f 419/534/8 418/533/8 456/572/8
f 414/529/4 416/531/4 453/583/4
f 402/516/4 401/515/4 445/584/4
f 397/511/11 399/513/11 457/574/11
f 394/508/8 396/510/8 463/585/8
f 393/507/1 392/506/1 460/578/1
f 443/559/8 419/534/8 462/582/8
f 416/531/4 449/565/4 412/576/4
f 415/530/4 447/1044/4 449/565/4
f 448/564/16 447/563/16 415/587/16
f 437/553/17 438/554/17 464/588/17
f 422/537/5 421/536/5 465/589/5
f 466/590/8 417/532/8 419/534/8
f 413/528/5 412/527/5 458/591/5
f 462/592/5 422/537/5 439/555/5
f 417/594/18 437/553/18 423/538/18
f 436/552/1 393/507/1 441/586/1
f 396/510/11 431/547/11 428/544/11
f 467/596/56 425/540/56 451/567/56
f 455/597/5 430/546/5 420/535/5
f 459/593/5 439/555/5 441/557/5
f 466/600/57 427/543/57 437/553/57
f 395/509/11 451/567/11 431/547/11
f 463/585/5 428/544/5 430/546/5
f 442/601/58 391/541/58 427/543/58
f 454/595/59 423/538/59 425/540/59
f 456/598/5 420/535/5 422/537/5
f 436/552/1 435/551/1 391/505/1
f 421/536/5 413/528/5 444/560/5
f 438/554/18 448/564/18 408/523/18
f 433/549/11 397/511/11 403/517/11
f 401/602/1 434/550/1 446/580/1
f 429/545/5 405/519/5 411/526/5
f 424/539/23 410/525/23 452/568/23
f 438/554/60 426/542/60 406/520/60
f 465/589/5 444/560/5 446/562/5
f 401/602/61 407/1045/61 468/604/61
f 450/566/5 411/526/5 413/528/5
f 464/588/7 408/523/7 410/525/7
f 435/605/26 468/1042/26 406/520/26
f 461/581/5 403/517/5 405/519/5
f 432/548/11 452/568/11 397/511/11
f 469/606/47 520/659/47 470/607/47
f 472/609/48 545/1046/48 473/610/48
f 475/612/49 530/669/49 476/613/49
f 478/615/4 485/1047/4 479/616/4
f 481/618/5 535/675/5 482/619/5
f 484/621/18 546/1048/18 485/622/18
f 486/624/50 493/688/50 487/625/50
f 489/627/5 531/670/5 490/628/5
f 492/630/4 487/1049/4 493/631/4
f 495/633/8 532/671/8 496/634/8
f 498/636/5 528/667/5 499/637/5
f 501/639/51 542/689/51 502/640/51
f 469/642/10 513/706/10 504/643/10
f 506/645/5 539/682/5 507/646/5
f 509/648/11 529/668/11 510/649/11
f 512/651/1 546/705/1 513/652/1
f 515/654/52 505/644/52 504/643/52
f 517/656/5 543/690/5 518/657/5
f 520/659/8 544/691/8 521/660/8
f 522/661/5 536/692/5 523/662/5
f 484/621/53 478/623/53 525/664/53
f 527/666/4 525/1050/4 478/615/4
f 508/647/5 507/646/5 528/667/5
f 503/641/54 502/640/54 510/649/54
f 476/613/4 487/1049/4 492/630/4
f 488/626/55 487/625/55 476/613/55
f 483/620/5 482/619/5 531/670/5
f 532/671/8 545/1046/8 472/609/8
f 496/634/8 472/609/8 533/672/8
f 477/614/4 492/630/4 482/674/4
f 527/666/4 480/617/4 536/676/4
f 470/607/8 521/660/8 537/678/8
f 512/651/1 514/653/1 518/680/1
f 509/648/11 511/650/11 539/682/11
f 497/635/8 496/634/8 534/673/8
f 492/630/4 494/632/4 531/684/4
f 480/617/4 479/616/4 523/685/4
f 475/612/11 477/614/11 535/675/11
f 472/609/8 474/611/8 541/686/8
f 471/608/1 470/607/1 538/679/1
f 521/660/8 497/635/8 540/683/8
f 494/632/4 527/666/4 490/677/4
f 493/631/4 525/1050/4 527/666/4
f 526/665/16 525/664/16 493/688/16
f 515/654/17 516/655/17 542/689/17
f 500/638/5 499/637/5 543/690/5
f 544/691/8 495/633/8 497/635/8
f 491/629/5 490/628/5 536/692/5
f 540/693/5 500/638/5 517/656/5
f 495/695/18 515/654/18 501/639/18
f 514/653/1 471/608/1 519/687/1
f 474/611/11 509/648/11 506/645/11
f 545/697/56 503/641/56 529/668/56
f 533/698/5 508/647/5 498/636/5
f 537/694/5 517/656/5 519/658/5
f 544/701/57 505/644/57 515/654/57
f 473/610/11 529/668/11 509/648/11
f 541/686/5 506/645/5 508/647/5
f 520/702/58 469/642/58 505/644/58
f 532/696/59 501/639/59 503/641/59
f 534/699/5 498/636/5 500/638/5
f 514/653/1 513/652/1 469/606/1
f 499/637/5 491/629/5 522/661/5
f 516/655/18 526/665/18 486/624/18
f 511/650/11 475/612/11 481/618/11
f 479/703/1 512/651/1 524/681/1
f 507/646/5 483/620/5 489/627/5
f 502/640/23 488/626/23 530/669/23
f 516/655/60 504/643/60 484/621/60
f 543/690/5 522/661/5 524/663/5
f 479/703/61 485/1051/61 546/705/61
f 528/667/5 489/627/5 491/629/5
f 542/689/7 486/624/7 488/626/7
f 513/706/26 546/1048/26 484/621/26
f 539/682/5 481/618/5 483/620/5
f 510/649/11 530/669/11 475/612/11
f 547/707/47 598/760/47 548/708/47
f 550/710/48 623/1052/48 551/711/48
f 553/713/49 608/770/49 554/714/49
f 556/716/4 563/1053/4 557/717/4
f 559/719/5 613/776/5 560/720/5
f 562/722/18 624/1054/18 563/723/18
f 564/725/50 571/789/50 565/726/50
f 567/728/5 609/771/5 568/729/5
f 570/731/4 565/1055/4 571/732/4
f 573/734/8 610/772/8 574/735/8
f 576/737/5 606/768/5 577/738/5
f 579/740/51 620/790/51 580/741/51
f 547/743/10 591/807/10 582/744/10
f 584/746/5 617/783/5 585/747/5
f 587/749/11 607/769/11 588/750/11
f 590/752/1 624/806/1 591/753/1
f 593/755/52 583/745/52 582/744/52
f 595/757/5 621/791/5 596/758/5
f 598/760/8 622/792/8 599/761/8
f 600/762/5 614/793/5 601/763/5
f 562/722/53 556/724/53 603/765/53
f 605/767/4 603/1056/4 556/716/4
f 586/748/5 585/747/5 606/768/5
f 581/742/54 580/741/54 588/750/54
f 554/714/4 565/1055/4 570/731/4
f 566/727/55 565/726/55 554/714/55
f 561/721/5 560/720/5 609/771/5
f 610/772/8 623/1052/8 550/710/8
f 574/735/8 550/710/8 611/773/8
f 555/715/4 570/731/4 560/775/4
f 605/767/4 558/718/4 614/777/4
f 548/708/8 599/761/8 615/779/8
f 590/752/1 592/754/1 596/781/1
f 587/749/11 589/751/11 617/783/11
f 575/736/8 574/735/8 612/774/8
f 570/731/4 572/733/4 609/785/4
f 558/718/4 557/717/4 601/786/4
f 553/713/11 555/715/11 613/776/11
f 550/710/8 552/712/8 619/787/8
f 549/709/1 548/708/1 616/780/1
f 599/761/8 575/736/8 618/784/8
f 572/733/4 605/767/4 568/778/4
f 571/732/4 603/1056/4 605/767/4
f 604/766/16 603/765/16 571/789/16
f 593/755/17 594/756/17 620/790/17
f 578/739/5 577/738/5 621/791/5
f 622/792/8 573/734/8 575/736/8
f 569/730/5 568/729/5 614/793/5
f 618/794/5 578/739/5 595/757/5
f 573/796/18 593/755/18 579/740/18
f 592/754/1 549/709/1 597/788/1
f 552/712/11 587/749/11 584/746/11
f 623/798/56 581/742/56 607/769/56
f 611/799/5 586/748/5 576/737/5
f 615/795/5 595/757/5 597/759/5
f 622/802/57 583/745/57 593/755/57
f 551/711/11 607/769/11 587/749/11
f 619/787/5 584/746/5 586/748/5
f 598/803/58 547/743/58 583/745/58
f 610/797/59 579/740/59 581/742/59
f 612/800/5 576/737/5 578/739/5
f 592/754/1 591/753/1 547/707/1
f 577/738/5 569/730/5 600/762/5
f 594/756/18 604/766/18 564/725/18
f 589/751/11 553/713/11 559/719/11
f 557/804/1 590/752/1 602/782/1
f 585/747/5 561/721/5 567/728/5
f 580/741/23 566/727/23 608/770/23
f 594/756/60 582/744/60 562/722/60
f 621/791/5 600/762/5 602/764/5
f 557/804/61 563/1057/61 624/806/61
f 606/768/5 567/728/5 569/730/5
f 620/790/7 564/725/7 566/727/7
f 591/807/26 624/1054/26 562/722/26
f 617/783/5 559/719/5 561/721/5
f 588/750/11 608/770/11 553/713/11
f 625/808/47 676/861/47 626/809/47
f 628/811/48 701/1058/48 629/812/48
f 631/814/49 686/871/49 632/815/49
f 634/817/4 641/1059/4 635/818/4
f 637/820/5 691/877/5 638/821/5
f 640/823/18 702/1060/18 641/824/18
f 642/826/50 649/890/50 643/827/50
f 645/829/5 687/872/5 646/830/5
f 648/832/4 643/1061/4 649/833/4
f 651/835/8 688/873/8 652/836/8
f 654/838/5 684/869/5 655/839/5
f 657/841/51 698/891/51 658/842/51
f 625/844/10 669/908/10 660/845/10
f 662/847/5 695/884/5 663/848/5
f 665/850/11 685/870/11 666/851/11
f 668/853/1 702/907/1 669/854/1
f 671/856/52 661/846/52 660/845/52
f 673/858/5 699/892/5 674/859/5
f 676/861/8 700/893/8 677/862/8
f 678/863/5 692/894/5 679/864/5
f 640/823/53 634/825/53 681/866/53
f 683/868/4 681/1062/4 634/817/4
f 664/849/5 663/848/5 684/869/5
f 659/843/54 658/842/54 666/851/54
f 632/815/4 643/1061/4 648/832/4
f 644/828/55 643/827/55 632/815/55
f 639/822/5 638/821/5 687/872/5
f 688/873/8 701/1058/8 628/811/8
f 652/836/8 628/811/8 689/874/8
f 633/816/4 648/832/4 638/876/4
f 683/868/4 636/819/4 692/878/4
f 626/809/8 677/862/8 693/880/8
f 668/853/1 670/855/1 674/882/1
f 665/850/11 667/852/11 695/884/11
f 653/837/8 652/836/8 690/875/8
f 648/832/4 650/834/4 687/886/4
f 636/819/4 635/818/4 679/887/4
f 631/814/11 633/816/11 691/877/11
f 628/811/8 630/813/8 697/888/8
f 627/810/1 626/809/1 694/881/1
f 677/862/8 653/837/8 696/885/8
f 650/834/4 683/868/4 646/879/4
f 649/833/4 681/1062/4 683/868/4
f 682/867/16 681/866/16 649/890/16
f 671/856/17 672/857/17 698/891/17
f 656/840/5 655/839/5 699/892/5
f 700/893/8 651/835/8 653/837/8
f 647/831/5 646/830/5 692/894/5
f 696/895/5 656/840/5 673/858/5
f 651/897/18 671/856/18 657/841/18
f 670/855/1 627/810/1 675/889/1
f 630/813/11 665/850/11 662/847/11
f 701/899/56 659/843/56 685/870/56
f 689/900/5 664/849/5 654/838/5
f 693/896/5 673/858/5 675/860/5
f 700/903/57 661/846/57 671/856/57
f 629/812/11 685/870/11 665/850/11
f 697/888/5 662/847/5 664/849/5
f 676/904/58 625/844/58 661/846/58
f 688/898/59 657/841/59 659/843/59
f 690/901/5 654/838/5 656/840/5
f 670/855/1 669/854/1 625/808/1
f 655/839/5 647/831/5 678/863/5
f 672/857/18 682/867/18 642/826/18
f 667/852/11 631/814/11 637/820/11
f 635/905/1 668/853/1 680/883/1
f 663/848/5 639/822/5 645/829/5
f 658/842/23 644/828/23 686/871/23
f 672/857/60 660/845/60 640/823/60
f 699/892/5 678/863/5 680/865/5
f 635/905/61 641/1063/61 702/907/61
f 684/869/5 645/829/5 647/831/5
f 698/891/7 642/826/7 644/828/7
f 669/908/26 702/1060/26 640/823/26
f 695/884/5 637/820/5 639/822/5
f 666/851/11 686/871/11 631/814/11
f 703/909/62 754/962/62 704/910/62
f 706/912/63 779/1064/63 707/913/63
f 709/915/64 764/972/64 710/916/64
f 712/918/11 719/1065/11 713/919/11
f 715/921/5 769/978/5 716/922/5
f 718/924/18 780/1066/18 719/925/18
f 720/927/65 727/991/65 721/928/65
f 723/930/5 765/973/5 724/931/5
f 726/933/11 721/1067/11 727/934/11
f 729/936/1 766/974/1 730/937/1
f 732/939/5 762/970/5 733/940/5
f 735/942/66 775/992/66 736/943/66
f 738/945/32 703/1068/32 739/946/32
f 741/948/5 772/985/5 742/949/5
f 744/951/8 763/971/8 745/952/8
f 747/954/4 780/1008/4 739/955/4
f 749/957/67 738/945/67 740/947/67
f 751/959/5 776/993/5 752/960/5
f 754/962/1 777/994/1 755/963/1
f 756/964/5 778/995/5 757/965/5
f 718/924/68 712/926/68 759/967/68
f 761/969/11 759/1069/11 712/918/11
f 743/950/5 742/949/5 762/970/5
f 737/944/69 736/943/69 745/952/69
f 710/916/11 721/1067/11 726/933/11
f 764/972/18 722/929/18 721/928/18
f 717/923/5 716/922/5 765/973/5
f 766/974/1 779/1064/1 706/912/1
f 730/937/1 706/912/1 767/975/1
f 711/917/11 726/933/11 716/977/11
f 761/969/11 714/920/11 757/979/11
f 704/910/1 755/963/1 770/981/1
f 747/954/4 748/956/4 752/983/4
f 744/951/8 746/953/8 772/985/8
f 731/938/1 730/937/1 768/976/1
f 726/933/11 728/935/11 765/987/11
f 714/920/11 713/919/11 758/988/11
f 709/915/8 711/917/8 769/978/8
f 706/912/1 708/914/1 774/989/1
f 705/911/4 704/910/4 771/982/4
f 755/963/1 731/938/1 773/986/1
f 728/935/11 761/969/11 724/980/11
f 727/934/11 759/1069/11 761/969/11
f 760/968/37 759/967/37 727/991/37
f 749/957/38 750/958/38 775/992/38
f 734/941/5 733/940/5 776/993/5
f 777/994/1 729/936/1 731/938/1
f 725/932/5 724/931/5 757/965/5
f 773/996/5 734/941/5 751/959/5
f 729/998/18 749/957/18 735/942/18
f 748/956/4 705/911/4 753/990/4
f 708/914/8 744/951/8 741/948/8
f 779/1000/70 737/944/70 763/971/70
f 767/1001/5 743/950/5 732/939/5
f 770/997/5 751/959/5 753/961/5
f 777/1004/71 738/945/71 749/957/71
f 707/913/8 763/971/8 744/951/8
f 774/989/5 741/948/5 743/950/5
f 754/1005/72 703/1068/72 738/945/72
f 766/999/73 735/942/73 737/944/73
f 768/1002/5 732/939/5 734/941/5
f 748/956/4 739/955/4 703/909/4
f 733/940/5 725/932/5 778/995/5
f 750/958/18 760/968/18 720/927/18
f 746/953/8 709/915/8 715/921/8
f 713/1006/4 747/954/4 756/984/4
f 742/949/5 717/923/5 723/930/5
f 736/943/43 722/929/43 764/972/43
f 750/958/74 740/947/74 718/924/74
f 752/960/5 776/993/5 778/995/5
f 713/1006/75 719/1070/75 780/1008/75
f 762/970/5 723/930/5 725/932/5
f 775/992/30 720/927/30 722/929/30
f 739/946/46 780/1066/46 718/924/46
f 772/985/5 715/921/5 717/923/5
f 745/952/8 764/972/8 709/915/8
