{
	"asset":{
		"generator":"Khronos glTF Blender I/O v3.5.30",
		"version":"2.0"
	},
	"scene":0,
	"scenes":[
		{
			"name":"Scene",
			"nodes":[
				6
			]
		}
	],
	"nodes":[
		{
			"name":"Bone.002",
			"translation":[
				0,
				0.7214126586914062,
				0
			]
		},
		{
			"children":[
				0
			],
			"name":"Bone.001",
			"translation":[
				0,
				0.5335381031036377,
				0
			]
		},
		{
			"children":[
				1
			],
			"name":"Bone",
			"translation":[
				0,
				1.9963467121124268,
				0
			]
		},
		{
			"name":"Bone.004",
			"rotation":[
				-0.0055553000420331955,
				6.439196909013845e-08,
				6.665586482768049e-08,
				0.9999845623970032
			],
			"scale":[
				1,
				1,
				0.9999999403953552
			],
			"translation":[
				5.551115123125783e-17,
				0.7486389875411987,
				1.2256862191861728e-12
			]
		},
		{
			"children":[
				3
			],
			"name":"Bone.003",
			"rotation":[
				-0.7071001529693604,
				-0.0039281658828258514,
				-0.7070915699005127,
				0.00392818683758378
			],
			"scale":[
				1,
				1.0000001192092896,
				1
			],
			"translation":[
				0,
				1.9963467121124268,
				0
			]
		},
		{
			"mesh":0,
			"name":"test",
			"skin":0
		},
		{
			"children":[
				5,
				2,
				4
			],
			"name":"\u30a2\u30fc\u30de\u30c1\u30e5\u30a2"
		}
	],
	"animations":[
		{
			"channels":[
				{
					"sampler":0,
					"target":{
						"node":2,
						"path":"translation"
					}
				},
				{
					"sampler":1,
					"target":{
						"node":2,
						"path":"rotation"
					}
				},
				{
					"sampler":2,
					"target":{
						"node":2,
						"path":"scale"
					}
				},
				{
					"sampler":3,
					"target":{
						"node":1,
						"path":"translation"
					}
				},
				{
					"sampler":4,
					"target":{
						"node":1,
						"path":"rotation"
					}
				},
				{
					"sampler":5,
					"target":{
						"node":1,
						"path":"scale"
					}
				},
				{
					"sampler":6,
					"target":{
						"node":0,
						"path":"translation"
					}
				},
				{
					"sampler":7,
					"target":{
						"node":0,
						"path":"rotation"
					}
				},
				{
					"sampler":8,
					"target":{
						"node":0,
						"path":"scale"
					}
				},
				{
					"sampler":9,
					"target":{
						"node":4,
						"path":"translation"
					}
				},
				{
					"sampler":10,
					"target":{
						"node":4,
						"path":"rotation"
					}
				},
				{
					"sampler":11,
					"target":{
						"node":4,
						"path":"scale"
					}
				},
				{
					"sampler":12,
					"target":{
						"node":3,
						"path":"translation"
					}
				},
				{
					"sampler":13,
					"target":{
						"node":3,
						"path":"rotation"
					}
				},
				{
					"sampler":14,
					"target":{
						"node":3,
						"path":"scale"
					}
				}
			],
			"name":"\u30a2\u30fc\u30de\u30c1\u30e5\u30a2Action.003",
			"samplers":[
				{
					"input":7,
					"interpolation":"LINEAR",
					"output":8
				},
				{
					"input":7,
					"interpolation":"LINEAR",
					"output":9
				},
				{
					"input":7,
					"interpolation":"LINEAR",
					"output":10
				},
				{
					"input":7,
					"interpolation":"LINEAR",
					"output":11
				},
				{
					"input":7,
					"interpolation":"LINEAR",
					"output":12
				},
				{
					"input":7,
					"interpolation":"LINEAR",
					"output":13
				},
				{
					"input":7,
					"interpolation":"LINEAR",
					"output":14
				},
				{
					"input":7,
					"interpolation":"LINEAR",
					"output":15
				},
				{
					"input":7,
					"interpolation":"LINEAR",
					"output":16
				},
				{
					"input":7,
					"interpolation":"LINEAR",
					"output":17
				},
				{
					"input":7,
					"interpolation":"LINEAR",
					"output":18
				},
				{
					"input":7,
					"interpolation":"LINEAR",
					"output":19
				},
				{
					"input":7,
					"interpolation":"LINEAR",
					"output":20
				},
				{
					"input":7,
					"interpolation":"LINEAR",
					"output":21
				},
				{
					"input":7,
					"interpolation":"LINEAR",
					"output":22
				}
			]
		}
	],
	"materials":[
		{
			"doubleSided":true,
			"name":"Material",
			"pbrMetallicRoughness":{
				"baseColorTexture":{
					"index":0
				},
				"metallicFactor":0,
				"roughnessFactor":0.5
			}
		}
	],
	"meshes":[
		{
			"name":"test",
			"primitives":[
				{
					"attributes":{
						"POSITION":0,
						"TEXCOORD_0":1,
						"NORMAL":2,
						"JOINTS_0":3,
						"WEIGHTS_0":4
					},
					"indices":5,
					"material":0
				}
			]
		}
	],
	"textures":[
		{
			"sampler":0,
			"source":0
		}
	],
	"images":[
		{
			"mimeType":"image/png",
			"name":"brush",
			"uri":"brush.png"
		}
	],
	"skins":[
		{
			"inverseBindMatrices":6,
			"joints":[
				2,
				1,
				0,
				4,
				3
			],
			"name":"\u30a2\u30fc\u30de\u30c1\u30e5\u30a2"
		}
	],
	"accessors":[
		{
			"bufferView":0,
			"componentType":5126,
			"count":709,
			"max":[
				0.7200700044631958,
				4.5644001960754395,
				0.17789708077907562
			],
			"min":[
				-0.7206869721412659,
				0.05106912553310394,
				-0.17881092429161072
			],
			"type":"VEC3"
		},
		{
			"bufferView":1,
			"componentType":5126,
			"count":709,
			"type":"VEC2"
		},
		{
			"bufferView":2,
			"componentType":5126,
			"count":709,
			"type":"VEC3"
		},
		{
			"bufferView":3,
			"componentType":5121,
			"count":709,
			"type":"VEC4"
		},
		{
			"bufferView":4,
			"componentType":5126,
			"count":709,
			"type":"VEC4"
		},
		{
			"bufferView":5,
			"componentType":5123,
			"count":1224,
			"type":"SCALAR"
		},
		{
			"bufferView":6,
			"componentType":5126,
			"count":5,
			"type":"MAT4"
		},
		{
			"bufferView":7,
			"componentType":5126,
			"count":61,
			"max":[
				2.5
			],
			"min":[
				0
			],
			"type":"SCALAR"
		},
		{
			"bufferView":8,
			"componentType":5126,
			"count":61,
			"type":"VEC3"
		},
		{
			"bufferView":9,
			"componentType":5126,
			"count":61,
			"type":"VEC4"
		},
		{
			"bufferView":10,
			"componentType":5126,
			"count":61,
			"type":"VEC3"
		},
		{
			"bufferView":11,
			"componentType":5126,
			"count":61,
			"type":"VEC3"
		},
		{
			"bufferView":12,
			"componentType":5126,
			"count":61,
			"type":"VEC4"
		},
		{
			"bufferView":13,
			"componentType":5126,
			"count":61,
			"type":"VEC3"
		},
		{
			"bufferView":14,
			"componentType":5126,
			"count":61,
			"type":"VEC3"
		},
		{
			"bufferView":15,
			"componentType":5126,
			"count":61,
			"type":"VEC4"
		},
		{
			"bufferView":16,
			"componentType":5126,
			"count":61,
			"type":"VEC3"
		},
		{
			"bufferView":17,
			"componentType":5126,
			"count":61,
			"type":"VEC3"
		},
		{
			"bufferView":18,
			"componentType":5126,
			"count":61,
			"type":"VEC4"
		},
		{
			"bufferView":19,
			"componentType":5126,
			"count":61,
			"type":"VEC3"
		},
		{
			"bufferView":20,
			"componentType":5126,
			"count":61,
			"type":"VEC3"
		},
		{
			"bufferView":21,
			"componentType":5126,
			"count":61,
			"type":"VEC4"
		},
		{
			"bufferView":22,
			"componentType":5126,
			"count":61,
			"type":"VEC3"
		}
	],
	"bufferViews":[
		{
			"buffer":0,
			"byteLength":8508,
			"byteOffset":0,
			"target":34962
		},
		{
			"buffer":0,
			"byteLength":5672,
			"byteOffset":8508,
			"target":34962
		},
		{
			"buffer":0,
			"byteLength":8508,
			"byteOffset":14180,
			"target":34962
		},
		{
			"buffer":0,
			"byteLength":2836,
			"byteOffset":22688,
			"target":34962
		},
		{
			"buffer":0,
			"byteLength":11344,
			"byteOffset":25524,
			"target":34962
		},
		{
			"buffer":0,
			"byteLength":2448,
			"byteOffset":36868,
			"target":34963
		},
		{
			"buffer":0,
			"byteLength":320,
			"byteOffset":39316
		},
		{
			"buffer":0,
			"byteLength":244,
			"byteOffset":39636
		},
		{
			"buffer":0,
			"byteLength":732,
			"byteOffset":39880
		},
		{
			"buffer":0,
			"byteLength":976,
			"byteOffset":40612
		},
		{
			"buffer":0,
			"byteLength":732,
			"byteOffset":41588
		},
		{
			"buffer":0,
			"byteLength":732,
			"byteOffset":42320
		},
		{
			"buffer":0,
			"byteLength":976,
			"byteOffset":43052
		},
		{
			"buffer":0,
			"byteLength":732,
			"byteOffset":44028
		},
		{
			"buffer":0,
			"byteLength":732,
			"byteOffset":44760
		},
		{
			"buffer":0,
			"byteLength":976,
			"byteOffset":45492
		},
		{
			"buffer":0,
			"byteLength":732,
			"byteOffset":46468
		},
		{
			"buffer":0,
			"byteLength":732,
			"byteOffset":47200
		},
		{
			"buffer":0,
			"byteLength":976,
			"byteOffset":47932
		},
		{
			"buffer":0,
			"byteLength":732,
			"byteOffset":48908
		},
		{
			"buffer":0,
			"byteLength":732,
			"byteOffset":49640
		},
		{
			"buffer":0,
			"byteLength":976,
			"byteOffset":50372
		},
		{
			"buffer":0,
			"byteLength":732,
			"byteOffset":51348
		}
	],
	"samplers":[
		{
			"magFilter":9729,
			"minFilter":9987
		}
	],
	"buffers":[
		{
			"byteLength":52080,
			"uri":"brush_stay.bin"
		}
	]
}
