# Blender v3.5.0 OBJ File: ''
# www.blender.org
mtllib block.mtl
o Cube
v -0.900000 0.900000 1.000000
v -0.900000 1.000000 0.900000
v -1.000000 0.900000 0.900000
v -0.900000 0.970711 0.970711
v -0.957735 0.957735 0.957735
v -0.970711 0.970711 0.900000
v -0.970711 0.900000 0.970711
v -0.900000 -1.000000 0.900000
v -0.900000 -0.900000 1.000000
v -1.000000 -0.900000 0.900000
v -0.900000 -0.970711 0.970711
v -0.957735 -0.957735 0.957735
v -0.970711 -0.900000 0.970711
v -0.970711 -0.970711 0.900000
v -1.000000 0.900000 -0.900000
v -0.900000 1.000000 -0.900000
v -0.900000 0.900000 -1.000000
v -0.970711 0.970711 -0.900000
v -0.957735 0.957735 -0.957735
v -0.900000 0.970711 -0.970711
v -0.970711 0.900000 -0.970711
v -1.000000 -0.900000 -0.900000
v -0.900000 -0.900000 -1.000000
v -0.900000 -1.000000 -0.900000
v -0.970711 -0.900000 -0.970711
v -0.957735 -0.957735 -0.957735
v -0.900000 -0.970711 -0.970711
v -0.970711 -0.970711 -0.900000
v 0.900000 0.900000 1.000000
v 1.000000 0.900000 0.900000
v 0.900000 1.000000 0.900000
v 0.970711 0.900000 0.970711
v 0.957735 0.957735 0.957735
v 0.970711 0.970711 0.900000
v 0.900000 0.970711 0.970711
v 1.000000 -0.900000 0.900000
v 0.900000 -0.900000 1.000000
v 0.900000 -1.000000 0.900000
v 0.970711 -0.900000 0.970711
v 0.957735 -0.957735 0.957735
v 0.900000 -0.970711 0.970711
v 0.970711 -0.970711 0.900000
v 1.000000 0.900000 -0.900000
v 0.900000 0.900000 -1.000000
v 0.900000 1.000000 -0.900000
v 0.970711 0.900000 -0.970711
v 0.957735 0.957735 -0.957735
v 0.900000 0.970711 -0.970711
v 0.970711 0.970711 -0.900000
v 0.900000 -1.000000 -0.900000
v 0.900000 -0.900000 -1.000000
v 1.000000 -0.900000 -0.900000
v 0.900000 -0.970711 -0.970711
v 0.957735 -0.957735 -0.957735
v 0.970711 -0.900000 -0.970711
v 0.970711 -0.970711 -0.900000
vt 0.362500 0.512500
vt 0.137500 0.737500
vt 0.137500 0.512500
vt 0.612500 0.012500
vt 0.387500 0.237500
vt 0.387500 0.012500
vt 0.612500 0.762500
vt 0.387500 0.987500
vt 0.387500 0.762500
vt 0.862500 0.512500
vt 0.637500 0.737500
vt 0.637500 0.512500
vt 0.612500 0.512500
vt 0.387500 0.737500
vt 0.387500 0.512500
vt 0.612500 0.487500
vt 0.623239 0.500000
vt 0.612500 0.500000
vt 0.637500 0.500000
vt 0.625000 0.512500
vt 0.375000 0.501761
vt 0.375000 0.512500
vt 0.387500 0.487500
vt 0.375000 0.487500
vt 0.387500 0.500000
vt 0.612500 0.737500
vt 0.625000 0.748239
vt 0.612500 0.750000
vt 0.625000 0.737500
vt 0.625000 0.762500
vt 0.376761 0.750000
vt 0.375000 0.737500
vt 0.387500 0.750000
vt 0.362500 0.737500
vt 0.362500 0.750000
vt 0.612500 0.262500
vt 0.619717 0.250000
vt 0.625000 0.262500
vt 0.612500 0.237500
vt 0.625000 0.244717
vt 0.612500 0.250000
vt 0.869717 0.500000
vt 0.875000 0.512500
vt 0.380283 0.250000
vt 0.375000 0.237500
vt 0.387500 0.262500
vt 0.375000 0.255283
vt 0.387500 0.250000
vt 0.125000 0.505283
vt 0.137500 0.500000
vt 0.619717 0.000000
vt 0.625000 0.012500
vt 0.612500 0.987500
vt 0.625000 0.994717
vt 0.612500 1.000000
vt 0.862500 0.737500
vt 0.875000 0.744717
vt 0.862500 0.750000
vt 0.130283 0.750000
vt 0.125000 0.737500
vt 0.380283 1.000000
vt 0.375000 0.987500
vt 0.375000 0.005283
vt 0.387500 0.000000
vt 0.125000 0.512500
vt 0.375000 0.012500
vt 0.362500 0.500000
vt 0.375000 0.262500
vt 0.387500 1.000000
vt 0.612500 0.000000
vt 0.637500 0.750000
vt 0.625000 0.987500
vt 0.137500 0.750000
vt 0.375000 0.762500
vt 0.875000 0.737500
vt 0.625000 0.237500
vt 0.862500 0.500000
vt 0.625000 0.487500
vn 0.0000 -1.0000 0.0000
vn 1.0000 0.0000 0.0000
vn 0.0000 0.0000 -1.0000
vn 0.0000 1.0000 0.0000
vn -1.0000 0.0000 0.0000
vn -0.3672 0.2817 0.8865
vn -0.2817 0.8865 0.3672
vn -0.8865 0.3672 0.2817
vn -0.3672 -0.8865 0.2817
vn -0.2817 -0.3672 0.8865
vn -0.8865 -0.2817 0.3672
vn -0.8865 0.2817 -0.3672
vn -0.3672 0.8865 -0.2817
vn -0.2817 0.3672 -0.8865
vn -0.8865 -0.3672 -0.2817
vn -0.3672 -0.2817 -0.8865
vn -0.2817 -0.8865 -0.3672
vn 0.2817 0.3672 0.8865
vn 0.8865 0.2817 0.3672
vn 0.3672 0.8865 0.2817
vn 0.8865 -0.3672 0.2817
vn 0.3672 -0.2817 0.8865
vn 0.2817 -0.8865 0.3672
vn 0.8865 0.3672 -0.2817
vn 0.3672 0.2817 -0.8865
vn 0.2817 0.8865 -0.3672
vn 0.3672 -0.8865 -0.2817
vn 0.2817 -0.3672 -0.8865
vn 0.8865 -0.2817 -0.3672
vn 0.3827 -0.9239 0.0000
vn 0.9239 -0.3827 0.0000
vn 0.0000 -0.9239 0.3827
vn 0.0000 -0.3827 0.9239
vn -0.9239 0.0000 0.3827
vn -0.3827 0.0000 0.9239
vn 0.3827 0.0000 -0.9239
vn 0.9239 0.0000 -0.3827
vn -0.3827 0.0000 -0.9239
vn -0.9239 0.0000 -0.3827
vn 0.3827 0.0000 0.9239
vn 0.9239 0.0000 0.3827
vn 0.0000 0.9239 -0.3827
vn 0.0000 0.3827 -0.9239
vn -0.3827 0.9239 0.0000
vn -0.9239 0.3827 0.0000
vn 0.0000 -0.9239 -0.3827
vn 0.0000 -0.3827 -0.9239
vn 0.3827 0.9239 0.0000
vn 0.9239 0.3827 0.0000
vn 0.0000 0.9239 0.3827
vn 0.0000 0.3827 0.9239
vn -0.3827 -0.9239 0.0000
vn -0.9239 -0.3827 0.0000
vn 0.0000 0.0000 1.0000
vn -0.2817 0.3672 0.8865
vn -0.3672 0.8865 0.2817
vn -0.8865 0.2817 0.3672
vn -0.2817 -0.8865 0.3672
vn -0.3672 -0.2817 0.8865
vn -0.8865 -0.3672 0.2817
vn -0.8865 0.3672 -0.2817
vn -0.2817 0.8865 -0.3672
vn -0.3672 0.2817 -0.8865
vn -0.8865 -0.2817 -0.3672
vn -0.2817 -0.3672 -0.8865
vn -0.3672 -0.8865 -0.2817
vn 0.3672 0.2817 0.8865
vn 0.8865 0.3672 0.2817
vn 0.2817 0.8865 0.3672
vn 0.8865 -0.2817 0.3672
vn 0.2817 -0.3672 0.8865
vn 0.3672 -0.8865 0.2817
vn 0.8865 0.2817 -0.3672
vn 0.2817 0.3672 -0.8865
vn 0.3672 0.8865 -0.2817
vn 0.2817 -0.8865 -0.3672
vn 0.3672 -0.2817 -0.8865
vn 0.8865 -0.3672 -0.2817
usemtl Material
s off
f 8/1/1 50/2/1 38/3/1
f 43/4/2 36/5/2 52/6/2
f 17/7/3 51/8/3 23/9/3
f 31/10/4 16/11/4 2/12/4
f 3/13/5 22/14/5 10/15/5
f 1/16/6 5/17/6 7/18/6
f 2/12/7 5/17/7 4/19/7
f 3/13/8 5/17/8 6/20/8
f 8/1/9 12/21/9 14/22/9
f 9/23/10 12/21/10 11/24/10
f 10/15/11 12/21/11 13/25/11
f 15/26/12 19/27/12 21/28/12
f 16/11/13 19/27/13 18/29/13
f 17/7/14 19/27/14 20/30/14
f 22/14/15 26/31/15 28/32/15
f 23/9/16 26/31/16 25/33/16
f 24/34/17 26/31/17 27/35/17
f 29/36/18 33/37/18 35/38/18
f 30/39/19 33/40/19 32/41/19
f 31/10/20 33/42/20 34/43/20
f 36/5/21 40/44/21 42/45/21
f 37/46/22 40/47/22 39/48/22
f 38/3/23 40/49/23 41/50/23
f 43/4/24 47/51/24 49/52/24
f 44/53/25 47/54/25 46/55/25
f 45/56/26 47/57/26 48/58/26
f 50/2/27 54/59/27 56/60/27
f 51/8/28 54/61/28 53/62/28
f 52/6/29 54/63/29 55/64/29
f 50/2/30 42/65/30 38/3/30
f 56/66/31 36/5/31 42/45/31
f 38/3/32 11/67/32 8/1/32
f 41/68/33 9/23/33 11/24/33
f 10/15/34 7/18/34 3/13/34
f 13/25/35 1/16/35 7/18/35
f 44/53/36 55/69/36 51/8/36
f 46/70/37 52/6/37 55/64/37
f 23/9/38 21/28/38 17/7/38
f 25/33/39 15/26/39 21/28/39
f 37/46/40 32/41/40 29/36/40
f 39/48/41 30/39/41 32/41/41
f 45/56/42 20/71/42 16/11/42
f 48/72/43 17/7/43 20/30/43
f 16/11/44 6/20/44 2/12/44
f 18/29/45 3/13/45 6/20/45
f 24/34/46 53/73/46 50/2/46
f 27/74/47 51/8/47 53/62/47
f 31/10/48 49/75/48 45/56/48
f 34/76/49 43/4/49 49/52/49
f 2/12/50 35/77/50 31/10/50
f 4/78/51 29/36/51 35/38/51
f 8/1/52 28/32/52 24/34/52
f 14/22/53 22/14/53 28/32/53
f 29/36/54 9/23/54 37/46/54
f 8/1/1 24/34/1 50/2/1
f 43/4/2 30/39/2 36/5/2
f 17/7/3 44/53/3 51/8/3
f 31/10/4 45/56/4 16/11/4
f 3/13/5 15/26/5 22/14/5
f 1/16/55 4/78/55 5/17/55
f 2/12/56 6/20/56 5/17/56
f 3/13/57 7/18/57 5/17/57
f 8/1/58 11/67/58 12/21/58
f 9/23/59 13/25/59 12/21/59
f 10/15/60 14/22/60 12/21/60
f 15/26/61 18/29/61 19/27/61
f 16/11/62 20/71/62 19/27/62
f 17/7/63 21/28/63 19/27/63
f 22/14/64 25/33/64 26/31/64
f 23/9/65 27/74/65 26/31/65
f 24/34/66 28/32/66 26/31/66
f 29/36/67 32/41/67 33/37/67
f 30/39/68 34/76/68 33/40/68
f 31/10/69 35/77/69 33/42/69
f 36/5/70 39/48/70 40/44/70
f 37/46/71 41/68/71 40/47/71
f 38/3/72 42/65/72 40/49/72
f 43/4/73 46/70/73 47/51/73
f 44/53/74 48/72/74 47/54/74
f 45/56/75 49/75/75 47/57/75
f 50/2/76 53/73/76 54/59/76
f 51/8/77 55/69/77 54/61/77
f 52/6/78 56/66/78 54/63/78
f 50/2/30 56/60/30 42/65/30
f 56/66/31 52/6/31 36/5/31
f 38/3/32 41/50/32 11/67/32
f 41/68/33 37/46/33 9/23/33
f 10/15/34 13/25/34 7/18/34
f 13/25/35 9/23/35 1/16/35
f 44/53/36 46/55/36 55/69/36
f 46/70/37 43/4/37 52/6/37
f 23/9/38 25/33/38 21/28/38
f 25/33/39 22/14/39 15/26/39
f 37/46/40 39/48/40 32/41/40
f 39/48/41 36/5/41 30/39/41
f 45/56/42 48/58/42 20/71/42
f 48/72/43 44/53/43 17/7/43
f 16/11/44 18/29/44 6/20/44
f 18/29/45 15/26/45 3/13/45
f 24/34/46 27/35/46 53/73/46
f 27/74/47 23/9/47 51/8/47
f 31/10/48 34/43/48 49/75/48
f 34/76/49 30/39/49 43/4/49
f 2/12/50 4/19/50 35/77/50
f 4/78/51 1/16/51 29/36/51
f 8/1/52 14/22/52 28/32/52
f 14/22/53 10/15/53 22/14/53
f 29/36/54 1/16/54 9/23/54
