# Blender v3.5.0 OBJ File: ''
# www.blender.org
mtllib block_wire.mtl
o cube_立方体
v 0.985566 -0.985566 -0.985566
v 1.014434 -1.014434 -1.014434
v 0.985566 0.985566 -0.985566
v 1.014434 1.014434 -1.014434
v 0.985566 -0.985566 0.985566
v 1.014434 -1.014434 1.014434
v 0.985566 0.985566 0.985566
v 1.014434 1.014434 1.014434
v -0.985566 -0.985566 -0.985566
v -1.014434 -1.014434 -1.014434
v -0.985566 0.985566 -0.985566
v -1.014434 1.014434 -1.014434
v -0.985566 -0.985566 0.985566
v -1.014434 -1.014434 1.014434
v -0.985566 0.985566 0.985566
v -1.014434 1.014434 1.014434
v 1.000000 -0.975000 -0.975000
v 1.000000 0.975000 -0.975000
v 1.000000 0.975000 0.975000
v 1.000000 -0.975000 0.975000
v 0.975000 -0.975000 1.000000
v 0.975000 0.975000 1.000000
v -0.975000 0.975000 1.000000
v -0.975000 -0.975000 1.000000
v -1.000000 -0.975000 0.975000
v -1.000000 0.975000 0.975000
v -1.000000 0.975000 -0.975000
v -1.000000 -0.975000 -0.975000
v -0.975000 -0.975000 -1.000000
v -0.975000 0.975000 -1.000000
v 0.975000 0.975000 -1.000000
v 0.975000 -0.975000 -1.000000
v 0.975000 -1.000000 0.975000
v -0.975000 -1.000000 0.975000
v -0.975000 -1.000000 -0.975000
v 0.975000 -1.000000 -0.975000
v -0.975000 1.000000 0.975000
v 0.975000 1.000000 0.975000
v 0.975000 1.000000 -0.975000
v -0.975000 1.000000 -0.975000
vt 0.625000 0.000000
vt 0.375000 0.000000
vt 0.375000 0.000000
vt 0.625000 0.000000
vt 0.625000 0.250000
vt 0.625000 0.000000
vt 0.625000 0.250000
vt 0.375000 0.250000
vt 0.625000 0.250000
vt 0.375000 0.250000
vt 0.375000 0.250000
vt 0.375000 0.000000
vt 0.625000 0.250000
vt 0.375000 0.250000
vt 0.625000 0.500000
vt 0.625000 0.500000
vt 0.375000 0.500000
vt 0.625000 0.500000
vt 0.375000 0.500000
vt 0.375000 0.500000
vt 0.625000 0.500000
vt 0.375000 0.500000
vt 0.625000 0.750000
vt 0.625000 0.750000
vt 0.375000 0.750000
vt 0.625000 0.750000
vt 0.375000 0.750000
vt 0.375000 0.750000
vt 0.625000 0.750000
vt 0.375000 0.750000
vt 0.625000 1.000000
vt 0.625000 1.000000
vt 0.375000 1.000000
vt 0.625000 1.000000
vt 0.375000 1.000000
vt 0.375000 1.000000
vt 0.375000 0.500000
vt 0.125000 0.500000
vt 0.125000 0.500000
vt 0.375000 0.750000
vt 0.125000 0.750000
vt 0.125000 0.750000
vt 0.125000 0.750000
vt 0.125000 0.500000
vt 0.875000 0.500000
vt 0.625000 0.500000
vt 0.875000 0.500000
vt 0.875000 0.750000
vt 0.875000 0.500000
vt 0.875000 0.750000
vt 0.625000 0.750000
vt 0.875000 0.750000
vn -0.5907 0.0000 0.8069
vn 0.9391 0.0000 0.3437
vn -0.5907 -0.8069 0.0000
vn 0.9391 -0.3437 0.0000
vn -0.5907 0.0000 -0.8069
vn 0.9391 0.0000 -0.3437
vn -0.5907 0.8069 0.0000
vn 0.9391 0.3437 0.0000
vn -0.8069 0.0000 -0.5907
vn -0.3437 0.0000 0.9391
vn 0.0000 -0.8069 -0.5907
vn 0.0000 -0.3437 0.9391
vn 0.8069 0.0000 -0.5907
vn 0.3437 0.0000 0.9391
vn 0.0000 0.8069 -0.5907
vn 0.0000 0.3437 0.9391
vn 0.5907 0.0000 -0.8069
vn -0.9391 0.0000 -0.3437
vn 0.5907 -0.8069 0.0000
vn -0.9391 -0.3437 0.0000
vn 0.5907 0.0000 0.8069
vn -0.9391 0.0000 0.3437
vn 0.5907 0.8069 0.0000
vn -0.9391 0.3437 0.0000
vn 0.8069 0.0000 0.5907
vn 0.3437 0.0000 -0.9391
vn 0.0000 -0.8069 0.5907
vn 0.0000 -0.3437 -0.9391
vn -0.8069 0.0000 0.5907
vn -0.3437 0.0000 -0.9391
vn 0.0000 0.8069 0.5907
vn 0.0000 0.3437 -0.9391
vn 0.0000 0.5907 -0.8069
vn 0.0000 -0.9391 -0.3437
vn 0.8069 0.5907 0.0000
vn 0.3437 -0.9391 0.0000
vn 0.0000 0.5907 0.8069
vn 0.0000 -0.9391 0.3437
vn -0.8069 0.5907 0.0000
vn -0.3437 -0.9391 0.0000
vn 0.0000 -0.5907 -0.8069
vn 0.0000 0.9391 -0.3437
vn -0.8069 -0.5907 0.0000
vn -0.3437 0.9391 0.0000
vn 0.0000 -0.5907 0.8069
vn 0.0000 0.9391 0.3437
vn 0.8069 -0.5907 0.0000
vn 0.3437 0.9391 0.0000
usemtl None
s off
f 18/1/1 1/2/1 17/3/1
f 17/3/2 4/4/2 18/1/2
f 19/5/3 3/6/3 18/1/3
f 18/1/4 8/7/4 19/5/4
f 20/8/5 7/9/5 19/5/5
f 19/5/6 6/10/6 20/8/6
f 17/3/7 5/11/7 20/8/7
f 20/8/8 2/12/8 17/3/8
f 22/13/9 5/11/9 21/14/9
f 21/14/10 8/7/10 22/13/10
f 23/15/11 7/9/11 22/13/11
f 22/13/12 16/16/12 23/15/12
f 24/17/13 15/18/13 23/15/13
f 23/15/14 14/19/14 24/17/14
f 21/14/15 13/20/15 24/17/15
f 24/17/16 6/10/16 21/14/16
f 26/21/17 13/20/17 25/22/17
f 25/22/18 16/16/18 26/21/18
f 27/23/19 15/18/19 26/21/19
f 26/21/20 12/24/20 27/23/20
f 28/25/21 11/26/21 27/23/21
f 27/23/22 10/27/22 28/25/22
f 25/22/23 9/28/23 28/25/23
f 28/25/24 14/19/24 25/22/24
f 30/29/25 9/28/25 29/30/25
f 29/30/26 12/24/26 30/29/26
f 31/31/27 11/26/27 30/29/27
f 30/29/28 4/32/28 31/31/28
f 32/33/29 3/34/29 31/31/29
f 31/31/30 2/35/30 32/33/30
f 29/30/31 1/36/31 32/33/31
f 32/33/32 10/27/32 29/30/32
f 34/37/33 5/38/33 33/39/33
f 33/39/34 14/19/34 34/37/34
f 35/40/35 13/20/35 34/37/35
f 34/37/36 10/27/36 35/40/36
f 36/41/37 9/28/37 35/40/37
f 35/40/38 2/42/38 36/41/38
f 33/39/39 1/43/39 36/41/39
f 36/41/40 6/44/40 33/39/40
f 38/45/41 15/18/41 37/46/41
f 37/46/42 8/47/42 38/45/42
f 39/48/43 7/49/43 38/45/43
f 38/45/44 4/50/44 39/48/44
f 40/51/45 3/52/45 39/48/45
f 39/48/46 12/24/46 40/51/46
f 37/46/47 11/26/47 40/51/47
f 40/51/48 16/16/48 37/46/48
f 18/1/1 3/6/1 1/2/1
f 17/3/2 2/12/2 4/4/2
f 19/5/3 7/9/3 3/6/3
f 18/1/4 4/4/4 8/7/4
f 20/8/5 5/11/5 7/9/5
f 19/5/6 8/7/6 6/10/6
f 17/3/7 1/2/7 5/11/7
f 20/8/8 6/10/8 2/12/8
f 22/13/9 7/9/9 5/11/9
f 21/14/10 6/10/10 8/7/10
f 23/15/11 15/18/11 7/9/11
f 22/13/12 8/7/12 16/16/12
f 24/17/13 13/20/13 15/18/13
f 23/15/14 16/16/14 14/19/14
f 21/14/15 5/11/15 13/20/15
f 24/17/16 14/19/16 6/10/16
f 26/21/17 15/18/17 13/20/17
f 25/22/18 14/19/18 16/16/18
f 27/23/19 11/26/19 15/18/19
f 26/21/20 16/16/20 12/24/20
f 28/25/21 9/28/21 11/26/21
f 27/23/22 12/24/22 10/27/22
f 25/22/23 13/20/23 9/28/23
f 28/25/24 10/27/24 14/19/24
f 30/29/25 11/26/25 9/28/25
f 29/30/26 10/27/26 12/24/26
f 31/31/27 3/34/27 11/26/27
f 30/29/28 12/24/28 4/32/28
f 32/33/29 1/36/29 3/34/29
f 31/31/30 4/32/30 2/35/30
f 29/30/31 9/28/31 1/36/31
f 32/33/32 2/35/32 10/27/32
f 34/37/33 13/20/33 5/38/33
f 33/39/34 6/44/34 14/19/34
f 35/40/35 9/28/35 13/20/35
f 34/37/36 14/19/36 10/27/36
f 36/41/37 1/43/37 9/28/37
f 35/40/38 10/27/38 2/42/38
f 33/39/39 5/38/39 1/43/39
f 36/41/40 2/42/40 6/44/40
f 38/45/41 7/49/41 15/18/41
f 37/46/42 16/16/42 8/47/42
f 39/48/43 3/52/43 7/49/43
f 38/45/44 8/47/44 4/50/44
f 40/51/45 11/26/45 3/52/45
f 39/48/46 4/50/46 12/24/46
f 37/46/47 15/18/47 11/26/47
f 40/51/48 12/24/48 16/16/48
